<?xml version="1.0" encoding="UTF-8" standalone="no"?>
<!-- Generator: Adobe Illustrator 15.1.0, SVG Export Plug-In . SVG Version: 6.00 Build 0)  -->

<svg
   xmlns:dc="http://purl.org/dc/elements/1.1/"
   xmlns:cc="http://creativecommons.org/ns#"
   xmlns:rdf="http://www.w3.org/1999/02/22-rdf-syntax-ns#"
   xmlns:svg="http://www.w3.org/2000/svg"
   xmlns="http://www.w3.org/2000/svg"
   xmlns:xlink="http://www.w3.org/1999/xlink"
   xmlns:sodipodi="http://sodipodi.sourceforge.net/DTD/sodipodi-0.dtd"
   xmlns:inkscape="http://www.inkscape.org/namespaces/inkscape"
   version="1.1"
   id="Capa_1"
   x="0px"
   y="0px"
   width="1000"
   height="1000"
   viewBox="0 0 999.99994 999.99998"
   enable-background="new 0 0 143.531 160.858"
   xml:space="preserve"
   sodipodi:docname="dw_cyberman-black.svg"
   inkscape:version="0.92.2 5c3e80d, 2017-08-06"><metadata
     id="metadata17"><rdf:RDF><cc:Work
         rdf:about=""><dc:format>image/svg+xml</dc:format><dc:type
           rdf:resource="http://purl.org/dc/dcmitype/StillImage" /><dc:title></dc:title></cc:Work></rdf:RDF></metadata><defs
     id="defs15" /><sodipodi:namedview
     pagecolor="#ffffff"
     bordercolor="#666666"
     borderopacity="1"
     objecttolerance="10"
     gridtolerance="10"
     guidetolerance="10"
     inkscape:pageopacity="0"
     inkscape:pageshadow="2"
     inkscape:window-width="1680"
     inkscape:window-height="1006"
     id="namedview13"
     showgrid="false"
     fit-margin-top="0"
     fit-margin-left="0"
     fit-margin-right="0"
     fit-margin-bottom="0"
     inkscape:zoom="0.25"
     inkscape:cx="-648.2345"
     inkscape:cy="1592.4291"
     inkscape:window-x="0"
     inkscape:window-y="0"
     inkscape:window-maximized="0"
     inkscape:current-layer="Capa_1" /><g
     id="g10"
     transform="matrix(5.9058299,0,0,5.9058299,76.167363,25.000002)"><defs
       id="defs3"><rect
         id="SVGID_1_"
         width="143.53101"
         height="160.858"
         x="0"
         y="0" /></defs><clipPath
       id="SVGID_2_"><use
         xlink:href="#SVGID_1_"
         overflow="visible"
         id="use5"
         style="overflow:visible"
         x="0"
         y="0"
         width="100%"
         height="100%" /></clipPath><path
       clip-path="url(#SVGID_2_)"
       d="m 30.795,11.691 c 4.994,0 9.988,0.04 14.979,-0.033 0.959,-0.013 1.906,-0.476 2.863,-0.709 0.381,-0.092 0.777,-0.166 1.17,-0.17 1.22,-0.015 2.445,0.051 3.664,-0.002 0.906,-0.039 1.666,-0.337 1.916,-1.402 1.115,-4.746 4.5,-7.109 8.902,-8.367 3.569,-1.02 7.201,-1.231 10.875,-0.791 3.635,0.435 7.033,1.478 9.873,3.926 1.559,1.343 2.533,3.054 2.951,5.031 0.252,1.183 0.859,1.652 1.994,1.627 0.713,-0.016 1.426,-0.02 2.139,-0.008 1.236,0.022 2.492,-0.289 3.605,0.699 0.365,0.324 1.175,0.194 1.779,0.194 9.783,0.004 19.566,-0.022 29.35,-0.002 5.793,0.009 10.557,2.115 13.461,7.318 0.881,1.581 1.508,3.532 1.533,5.325 0.145,10.136 0.121,20.277 0.047,30.416 -0.035,4.771 -0.311,9.541 -0.471,14.31 -0.006,0.2 -0.039,0.459 0.064,0.592 1.184,1.52 0.75,3.283 0.829,4.983 0.024,0.541 0.375,1.068 0.585,1.599 0.184,0.455 0.516,0.893 0.553,1.358 0.393,4.787 -0.707,9.035 -4.912,11.861 -1.301,0.873 -2.914,1.359 -4.451,1.785 -1.131,0.313 -1.608,0.756 -2.127,1.92 -0.723,1.627 -0.426,3.098 -0.438,4.666 -0.006,0.627 -0.416,1.252 -0.633,1.881 -0.111,0.32 -0.307,0.66 -0.277,0.972 0.467,4.999 -2.24,8.415 -5.754,11.356 -0.523,0.438 -1.546,0.35 -2.342,0.371 -2.021,0.053 -2.314,0.334 -2.107,2.268 0.363,3.432 -0.74,6.088 -3.41,8.475 -2.148,1.922 -3.68,4.549 -5.416,6.916 -0.293,0.402 -0.283,1.066 -0.309,1.614 -0.129,2.687 -0.174,5.375 -0.377,8.056 -0.029,0.361 -0.777,0.924 -1.215,0.944 -0.988,0.052 -1.258,0.597 -1.752,1.335 -1.658,2.471 -3.334,4.984 -5.369,7.137 -3.811,4.027 -8.635,6.734 -13.646,8.9 -4.377,1.895 -9.111,2.777 -13.943,2.787 -5.289,0.01 -10.623,0.314 -15.762,-1.27 -2.736,-0.844 -5.398,-1.965 -8.029,-3.109 -3.557,-1.547 -6.692,-3.783 -9.573,-6.363 -2.507,-2.248 -4.732,-4.713 -6.252,-7.783 -0.33,-0.666 -1.117,-1.34 -1.824,-1.529 -1.074,-0.291 -1.4,-0.762 -1.326,-1.805 0.082,-1.166 -0.113,-2.365 0.061,-3.512 0.541,-3.545 -0.875,-6.336 -3.172,-8.834 -1.301,-1.413 -2.573,-2.857 -3.93,-4.215 -1.771,-1.771 -2.906,-3.758 -2.623,-6.369 0.078,-0.705 0.006,-1.426 0.019,-2.139 0.022,-1.014 -0.482,-1.646 -1.474,-1.471 -2.766,0.492 -4.172,-1.502 -5.404,-3.229 -1.262,-1.768 -1.977,-3.945 -2.817,-5.991 -0.242,-0.595 -0.08,-1.353 -0.119,-2.034 -0.025,-0.439 0.094,-1.043 -0.144,-1.289 C 11.487,98.729 11.884,97.416 12.134,96.155 12.589,93.854 11.148,91.676 8.901,91.198 5.362,90.444 2.933,88.344 1.173,85.141 -0.208,82.621 0.112,80.026 0.001,77.413 -0.011,77.172 0.023,76.803 0.173,76.704 1.698,75.71 1.06,74.172 1.22,72.827 1.368,71.585 1.64,70.356 1.847,69.12 1.939,68.575 2.095,68.02 2.062,67.479 1.952,65.772 1.648,64.069 1.636,62.364 1.592,54.876 1.66,47.385 1.615,39.895 1.586,35.264 1.344,30.633 1.352,26.003 1.363,20.262 4.055,15.916 9.045,13.277 c 1.943,-1.027 4.383,-1.429 6.621,-1.527 5.035,-0.219 10.086,-0.068 15.129,-0.068 z m 80.816,10.163 v -0.006 c -4.889,-0.004 -9.773,-0.012 -14.66,0.008 -0.488,0.002 -1.238,0.014 -1.412,0.299 -0.572,0.941 -1.404,1.035 -2.33,1.094 -0.873,0.056 -1.045,0.603 -0.654,1.263 0.301,0.508 0.719,1 1.197,1.34 2.02,1.438 4.141,2.733 6.115,4.225 7.029,5.314 11.5,12.59 15.43,20.277 0.469,0.92 1.098,2.365 1.787,2.447 1.963,0.235 4.029,0.065 5.986,-0.308 0.831,-0.16 1.281,-0.289 1.744,0.439 1.41,2.225 3.041,4.34 4.199,6.688 1.406,2.851 2.211,5.894 0.676,9.068 -0.178,0.369 0.01,1.125 0.305,1.455 0.258,0.289 1.117,0.463 1.334,0.27 0.34,-0.305 0.506,-0.967 0.498,-1.473 -0.107,-6.658 -0.318,-13.314 -0.381,-19.973 -0.07,-7.177 -0.143,-14.357 0.045,-21.531 0.092,-3.545 -2.275,-5.639 -5.678,-5.598 -4.732,0.059 -9.466,0.016 -14.201,0.016 M 11.762,51.835 c 0,0.304 0.002,0.611 0,0.916 -0.031,5.396 -0.088,10.791 -0.045,16.185 0.002,0.44 0.666,0.873 1.021,1.309 0.293,-0.479 0.92,-1.041 0.825,-1.424 -0.752,-2.996 -0.942,-5.899 0.707,-8.688 1.386,-2.347 2.713,-4.734 4.146,-7.052 0.469,-0.762 1.067,-0.85 2.151,-0.557 1.8,0.484 3.787,0.305 5.695,0.33 0.25,0.004 0.574,-0.393 0.742,-0.678 0.436,-0.738 0.762,-1.541 1.203,-2.275 2.403,-3.981 4.631,-8.088 7.295,-11.887 2.961,-4.22 6.813,-7.613 11.242,-10.328 1.328,-0.814 2.617,-1.76 3.729,-2.846 0.947,-0.921 0.648,-1.478 -0.649,-1.666 -0.437,-0.062 -1.095,-0.029 -1.263,-0.291 -0.721,-1.111 -1.782,-1.035 -2.85,-1.035 -9.264,0.008 -18.529,0.014 -27.793,0.031 -0.711,0 -1.457,-0.037 -2.123,0.159 -2.463,0.722 -3.605,1.879 -3.672,4.045 -0.121,4.003 -0.293,8.003 -0.347,12.007 -0.061,4.58 -0.014,9.163 -0.014,13.745 m 80.939,31.222 c -3.438,-0.459 -6.925,2.598 -8.527,5.705 -2,3.885 1.346,9.723 5.146,11.277 2.645,1.082 4.961,0.625 7.318,-0.457 0.979,-0.447 1.541,-0.497 2.014,0.645 0.254,0.615 0.82,1.305 1.408,1.521 0.561,0.207 1.521,0.053 1.945,-0.336 0.316,-0.291 0.209,-1.262 0.006,-1.83 -0.168,-0.475 -0.711,-0.848 -1.148,-1.191 -1.027,-0.806 -1.096,-1.65 -0.449,-2.783 3.346,-5.854 -2.383,-13.152 -7.713,-12.551 M 50.897,82.999 c -0.909,0.094 -1.897,-0.014 -2.709,0.314 -4.858,1.961 -7.834,7.1 -5.014,12.678 0.275,0.545 0.018,1.506 -0.275,2.143 -0.258,0.557 -1.067,0.85 -1.35,1.404 -0.27,0.523 -0.438,1.598 -0.178,1.787 0.533,0.393 1.389,0.477 2.098,0.443 0.338,-0.018 0.832,-0.543 0.943,-0.928 0.59,-2.047 1.793,-1.711 3.174,-0.93 0.174,0.1 0.387,0.123 0.574,0.201 5.395,2.227 11.643,-2.42 11.635,-8.215 -0.006,-4.813 -3.287,-8.78 -8.898,-8.897 m 20.984,54.025 v 0.004 c -0.713,0 -1.424,-0.002 -2.137,0.002 -1.982,0.006 -3.967,-0.031 -5.947,0.056 -0.473,0.022 -1.301,0.452 -1.312,0.722 -0.022,0.496 0.367,1.078 0.73,1.5 0.228,0.266 0.721,0.422 1.096,0.424 4.929,0.029 9.865,0.09 14.792,-0.057 0.674,-0.02 1.316,-1.115 1.973,-1.711 -0.675,-0.314 -1.34,-0.865 -2.027,-0.896 -2.385,-0.112 -4.779,-0.044 -7.168,-0.044"
       id="path8"
       inkscape:connector-curvature="0"
       style="clip-rule:evenodd;fill-rule:evenodd" /></g></svg>