<?xml version="1.0" encoding="UTF-8" standalone="no"?>
<!DOCTYPE svg PUBLIC "-//W3C//DTD SVG 1.1//EN" "http://www.w3.org/Graphics/SVG/1.1/DTD/svg11.dtd">
<svg width="100%" height="100%" viewBox="0 0 180 27" version="1.1" xmlns="http://www.w3.org/2000/svg" xmlns:xlink="http://www.w3.org/1999/xlink" xml:space="preserve" xmlns:serif="http://www.serif.com/" style="fill-rule:evenodd;clip-rule:evenodd;stroke-linejoin:round;stroke-miterlimit:2;">
	<g id="Who">
		<path id="W" d="M117.479,18.212l4.135,-12.83l1.901,0l4.134,12.93l4.033,-12.93l2.05,0l-4.913,15.03l-2.319,0l-3.996,-12.044l-3.925,12.044l-2.249,0l-4.933,-15.03l2.038,0l4.044,12.83Z"/>
		<path id="H-and-O--3-" serif:id="H and O (3)" d="M138.42,25.994l-1.935,0l0,-10.966c0,-0.954 0.979,-1.586 0.984,-1.589l-3.369,0c-0.064,0 -0.09,-0.025 -0.09,-0.09l0,-0.81c0,-0.052 0.027,-0.09 0.09,-0.09l2.385,0l0,-7.066l1.935,0l0,7.066l9.45,0l0,-12.646l1.935,0l0,12.646l3.355,0c0.182,-4.199 3.57,-8.064 8.547,-8.064c4.395,0 8.263,3.428 8.454,8.064l9.748,0l0.091,0.09l0,0.81l-0.091,0.09l-9.748,0c-0.145,4.52 -4.109,8.012 -8.468,8.012c-4.571,0 -8.165,-3.777 -8.165,-6.536c0,-0.924 0.717,-1.474 0.72,-1.476l-4.443,0l0,6.975l-1.936,0l0,-5.265c0,-1.049 0.931,-1.708 0.934,-1.71l-8.943,0c-0.861,0 -1.44,0.678 -1.44,1.44l0,11.115Zm16.56,-12.555l13.359,0c-0.259,4.148 -3.619,6.353 -6.68,6.353c-4.01,0 -6.401,-2.932 -6.679,-6.353Zm13.345,-0.99c-0.322,-4.429 -3.682,-6.39 -6.674,-6.39c-3.519,0 -6.408,2.542 -6.671,6.39l13.345,0Z"/>
	</g>
	<g id="Doctor">
		<path id="D" d="M17.209,21.628l-6.544,0l0,-6.299c0,-1.396 1.03,-1.888 1.035,-1.89l-11.61,0c-0.067,0 -0.09,-0.029 -0.09,-0.09l0,-0.81c0,-0.067 0.029,-0.09 0.09,-0.09l10.575,0l0,-6.48l-0.748,0l-0.516,-1.755l8.047,0c4.743,0 8.519,3.658 8.519,8.693c0,4.667 -3.301,8.721 -8.758,8.721Zm0.166,-15.659l-4.73,0l0,6.48l3.824,0c0.063,0 0.091,0.03 0.091,0.09l0,0.81c0,0.062 -0.032,0.09 -0.091,0.09l-2.429,0c-0.781,0 -1.395,0.676 -1.395,1.44l0,5.003l4.933,0c3.529,0 6.511,-3.017 6.511,-6.947c0,-3.694 -2.55,-6.966 -6.714,-6.966Z"/>
		<path id="O--1-" serif:id="O (1)" d="M36.089,5.029c-4.607,0 -7.886,3.749 -7.886,7.855c0,4.769 3.838,7.954 7.886,7.954c4.113,0 7.898,-3.309 7.898,-7.9c0,-4.198 -3.31,-7.909 -7.898,-7.909Zm-0.002,1.747c3.835,0 6.002,2.967 6.002,6.201c0,3.302 -2.486,6.098 -5.952,6.098c-3.512,0 -6.066,-2.76 -6.066,-6.196c0,-3.383 2.572,-6.103 6.016,-6.103Z"/>
		<path id="C" d="M54.032,5.029c-4.608,0 -7.886,3.749 -7.886,7.855c0,4.769 3.838,7.954 7.886,7.954c2.1,0 4.115,-0.863 5.584,-2.319l-1.28,-1.234c-1.053,1.1 -2.533,1.79 -4.256,1.79c-3.512,0 -6.066,-2.76 -6.066,-6.196c0,-3.383 2.572,-6.103 6.016,-6.103c1.861,0 3.328,0.698 4.346,1.786l1.237,-1.243c-1.395,-1.4 -3.335,-2.29 -5.581,-2.29Z"/>
		<path id="T" d="M67.049,7.138l-5.309,0l-0.501,-1.756l13.73,0l-0.54,1.756l-5.444,0l0,13.256l-1.936,0l0,-13.256Z"/>
		<path id="O--2-" serif:id="O (2)" d="M82.806,5.029c-4.608,0 -7.887,3.749 -7.887,7.855c0,4.769 3.838,7.954 7.887,7.954c4.112,0 7.897,-3.309 7.897,-7.9c0,-4.198 -3.31,-7.909 -7.897,-7.909Zm-6.019,7.85c0,-3.383 2.572,-6.103 6.016,-6.103c3.835,0 6.002,2.967 6.002,6.201c0,3.302 -2.485,6.098 -5.951,6.098c-3.512,0 -6.067,-2.76 -6.067,-6.196Z"/>
		<path id="R" d="M95.49,20.414l-1.936,0l0,-13.275l-0.764,0l-0.521,-1.756l8.171,0c2.89,0 4.593,2.458 4.593,4.627c0,2.694 -1.89,4.092 -3.536,4.531l3.912,5.873l-2.241,0l-3.808,-5.735l-3.87,0l0,5.735Zm4.86,-13.275l-4.86,0l0,5.776l4.86,0c1.793,0 2.759,-1.4 2.759,-2.953c0,-1.52 -0.995,-2.823 -2.759,-2.823Z"/>
	</g>
</svg>