<?xml version="1.0" standalone="no"?>
<!DOCTYPE svg PUBLIC "-//W3C//DTD SVG 1.1//EN" "http://www.w3.org/Graphics/SVG/1.1/DTD/svg11.dtd" >
<svg>
<metadata>
Created by FontForge 20090914 at Fri Feb 24 10:59:37 2012
 By root
Copyright JJE990 2010
</metadata>
<defs>
<font id="Doctor-Who" horiz-adv-x="416" >
  <font-face 
    font-family="Doctor Who"
    font-weight="400"
    font-stretch="normal"
    units-per-em="1024"
    panose-1="0 0 4 0 0 0 0 0 0 0"
    ascent="819"
    descent="-205"
    x-height="640"
    cap-height="640"
    bbox="0 -64 640 640"
    underline-thickness="51"
    underline-position="127"
    unicode-range="U+000D-U+201D"
  />
<missing-glyph horiz-adv-x="640" 
d="M320 90v102h-102v-102h102zM421 209v102h-203v-102h203zM320 328v102h-102v-102h102zM421 447v101h-101q-43 0 -72 -29q-30 -31 -30 -72h203zM0 0v640h640v-640h-640z" />
    <glyph glyph-name=".notdef" horiz-adv-x="640" 
d="M320 90v102h-102v-102h102zM421 209v102h-203v-102h203zM320 328v102h-102v-102h102zM421 447v101h-101q-43 0 -72 -29q-30 -31 -30 -72h203zM0 0v640h640v-640h-640z" />
    <glyph glyph-name="uni0000" horiz-adv-x="0" 
 />
    <glyph glyph-name="uni0000" horiz-adv-x="0" 
 />
    <glyph glyph-name="uni000D" unicode="&#xd;" horiz-adv-x="0" 
 />
    <glyph glyph-name="space" unicode=" " horiz-adv-x="192" 
 />
    <glyph glyph-name="exclam" unicode="!" horiz-adv-x="128" 
d="M0 0v64h64v-64h-64zM0 128v512h64v-512h-64z" />
    <glyph glyph-name="quotedbl" unicode="&#x22;" horiz-adv-x="160" 
d="M0 512v128h32v-128h-32zM64 512v128h32v-128h-32z" />
    <glyph glyph-name="numbersign" unicode="#" horiz-adv-x="192" 
d="M96 582q8 0 16 7q9 9 9 19q0 8 -7 16q-9 9 -18 9q-11 0 -19 -7q-7 -8 -7 -18q0 -9 7 -17q8 -9 19 -9zM0 576v64h64v-64l-32 32zM96 576q-14 0 -23 9t-9 23q0 13 9 22q9 10 23 10q13 0 22 -10q10 -9 10 -22q0 -14 -10 -23q-9 -9 -22 -9z" />
    <glyph glyph-name="dollar" unicode="$" horiz-adv-x="448" 
d="M192 384v64h-64v-64h64zM192 0v64h-160q-14 0 -23 9t-9 23v96h192v64h-128q-27 0 -46 18q-18 19 -18 46v192q0 26 18 45q19 19 46 19h128v64h64v-64h96q13 0 22 -10q10 -9 10 -22v-96h-128v-64h64q26 0 45 -19t19 -45v-192q0 -27 -19 -46q-19 -18 -45 -18h-64v-64h-64z
" />
    <glyph glyph-name="uni0025" unicode="%" horiz-adv-x="704" 
d="M384 128v64q0 -27 18 -46q19 -18 46 -18h-64zM448 128q26 0 45 18q19 19 19 46v-64h-64zM384 192v64h64q-27 0 -46 -19q-18 -19 -18 -45zM512 192q0 26 -19 45t-45 19h64v-64zM64 384v64q0 -27 18 -46q19 -18 46 -18h-64zM128 384q26 0 45 18q19 19 19 46v-64h-64z
M64 448v64h64q-27 0 -46 -19q-18 -19 -18 -45zM192 448q0 26 -19 45t-45 19h64v-64zM0 0v64l64 64l64 64l64 64l64 64l64 64l64 64l64 64l64 64l64 64h64v-64l-64 -64l-64 -64l-64 -64l-64 -64l-64 -64l-64 -64l-64 -64l-64 -64l-64 -64h-64z" />
    <glyph glyph-name="ampersand" unicode="&#x26;" horiz-adv-x="384" 
d="M128 64q26 0 45 18q19 19 19 46v64q0 26 -19 45t-45 19q-27 0 -46 -19q-18 -19 -18 -45v-64q0 -27 18 -46q19 -18 46 -18zM128 384q26 0 45 18q19 19 19 46q26 0 45 18q19 19 19 46q0 26 -19 45t-45 19h-64q-27 0 -46 -19q-18 -19 -18 -45v-64q0 -27 18 -46
q19 -18 46 -18zM32 0q-14 0 -23 9t-9 23v224q0 26 18 45q19 19 46 19q-27 0 -46 18q-18 19 -18 46v224q0 13 9 22q9 10 23 10h256q13 0 22 -10q10 -9 10 -22v-160l-64 -64q0 -27 -19 -46q-19 -18 -45 -18q26 0 45 -19t19 -45l64 -64v-64q0 -14 -10 -23q-9 -9 -22 -9
q13 0 22 -10q10 -9 10 -22v-64h-64q-14 0 -23 9t-9 23q0 -14 -10 -23q-9 -9 -22 -9h-160z" />
    <glyph glyph-name="quotesingle" unicode="'" horiz-adv-x="96" 
d="M0 512v128h32v-128h-32z" />
    <glyph glyph-name="parenleft" unicode="(" horiz-adv-x="192" 
d="M64 0q-27 0 -46 18q-18 19 -18 46v512q0 26 18 45q19 19 46 19h64q-27 0 -46 -19q-18 -19 -18 -45v-512q0 -27 18 -46q19 -18 46 -18h-64z" />
    <glyph glyph-name="parenright" unicode=")" horiz-adv-x="192" 
d="M0 0q26 0 45 18q19 19 19 46v512q0 26 -19 45t-45 19h64q26 0 45 -19t19 -45v-512q0 -27 -19 -46q-19 -18 -45 -18h-64z" />
    <glyph glyph-name="asterisk" unicode="*" horiz-adv-x="128" 
d="M51 577l-19 14l-20 -14v0l7 23l-19 15h24l8 23l7 -23h25l-20 -15z" />
    <glyph glyph-name="plus" unicode="+" horiz-adv-x="256" 
d="M64 192v64h-64v64h64v64h64v-64h64v-64h-64v-64h-64z" />
    <glyph glyph-name="comma" unicode="," horiz-adv-x="128" 
d="M0 -64v128h64v-64q0 -26 -19 -45t-45 -19z" />
    <glyph glyph-name="hyphen" unicode="-" horiz-adv-x="256" 
d="M0 256v64h192v-64h-192z" />
    <glyph glyph-name="period" unicode="." horiz-adv-x="128" 
d="M0 0v64h64v-64h-64z" />
    <glyph glyph-name="slash" unicode="/" horiz-adv-x="704" 
d="M0 0v64l64 64l64 64l64 64l64 64l64 64l64 64l64 64l64 64l64 64h64v-64l-64 -64l-64 -64l-64 -64l-64 -64l-64 -64l-64 -64l-64 -64l-64 -64l-64 -64h-64z" />
    <glyph glyph-name="zero" unicode="0" horiz-adv-x="256" 
d="M96 64q13 0 22 9q10 9 10 23v448q0 13 -10 22q-9 10 -22 10q-14 0 -23 -10q-9 -9 -9 -22v-448q0 -14 9 -23t23 -9zM32 0q-14 0 -23 9t-9 23v576q0 13 9 22q9 10 23 10h128q13 0 22 -10q10 -9 10 -22v-576q0 -14 -10 -23q-9 -9 -22 -9h-128z" />
    <glyph glyph-name="one" unicode="1" horiz-adv-x="256" 
d="M0 0v64h64v512h-64v32q0 13 9 22q9 10 23 10h96v-576h64v-64h-192z" />
    <glyph glyph-name="two" unicode="2" horiz-adv-x="320" 
d="M0 0v192l64 64l64 64l64 64v192h-128v-64h-64v96q0 13 9 22q9 10 23 10h192q13 0 22 -10q10 -9 10 -22v-288l-64 -64l-64 -64l-64 -64v-64h192v-64h-256z" />
    <glyph glyph-name="three" unicode="3" horiz-adv-x="320" 
d="M32 0q-14 0 -23 9t-9 23v96h64v-64h128v192h-64v64h64v256h-128v-64h-64v64q0 26 18 45q19 19 46 19h160q13 0 22 -10q10 -9 10 -22v-288q0 -14 -10 -23q-9 -9 -22 -9q13 0 22 -10q10 -9 10 -22v-224q0 -14 -10 -23q-9 -9 -22 -9h-192z" />
    <glyph glyph-name="four" unicode="4" horiz-adv-x="384" 
d="M128 0v256h-96q-14 0 -23 9t-9 23v352h64v-320h64v192h64v-192h128v-64h-128v-256h-64z" />
    <glyph glyph-name="five" unicode="5" horiz-adv-x="384" 
d="M32 0q-14 0 -23 9t-9 23v96h64v-64h192v256h-256v288q0 13 9 22q9 10 23 10h288v-64h-256v-192h224q13 0 22 -10q10 -9 10 -22v-320q0 -14 -10 -23q-9 -9 -22 -9h-256z" />
    <glyph glyph-name="six" unicode="6" horiz-adv-x="448" 
d="M256 64q26 0 45 18q19 19 19 46v128q0 26 -19 45t-45 19h-128q-27 0 -46 -19q-18 -19 -18 -45v-128q0 -27 18 -46q19 -18 46 -18h128zM32 0q-14 0 -23 9t-9 23v576q0 13 9 22q9 10 23 10h320q13 0 22 -10q10 -9 10 -22v-160h-64v64q0 26 -19 45t-45 19h-128
q-27 0 -46 -19q-18 -19 -18 -45v-64q0 -27 18 -46q19 -18 46 -18h224q13 0 22 -10q10 -9 10 -22v-320q0 -14 -10 -23q-9 -9 -22 -9h-320z" />
    <glyph glyph-name="seven" unicode="7" horiz-adv-x="384" 
d="M128 0v256l64 64l64 64v128q0 26 -19 45t-45 19h-192v32q0 13 9 22q9 10 23 10h256q13 0 22 -10q10 -9 10 -22v-288l-64 -64l-64 -64v-192h-64z" />
    <glyph glyph-name="eight" unicode="8" horiz-adv-x="384" 
d="M256 64v256h-192v-256h192zM256 384v192h-192v-192h192zM32 0q-14 0 -23 9t-9 23v288q0 13 9 22q9 10 23 10q-14 0 -23 9t-9 23v224q0 13 9 22q9 10 23 10h256q13 0 22 -10q10 -9 10 -22v-224q0 -14 -10 -23q-9 -9 -22 -9q13 0 22 -10q10 -9 10 -22v-288q0 -14 -10 -23
q-9 -9 -22 -9h-256z" />
    <glyph glyph-name="nine" unicode="9" horiz-adv-x="384" 
d="M192 384q26 0 45 18q19 19 19 46v64q0 26 -19 45t-45 19h-64q-27 0 -46 -19q-18 -19 -18 -45v-64q0 -27 18 -46q19 -18 46 -18h64zM32 0q-14 0 -23 9t-9 23v224h64v-192h192v192q0 26 -19 45t-45 19h-160q-14 0 -23 9t-9 23v256q0 13 9 22q9 10 23 10h256q13 0 22 -10
q10 -9 10 -22v-576q0 -14 -10 -23q-9 -9 -22 -9h-256z" />
    <glyph glyph-name="colon" unicode=":" horiz-adv-x="128" 
d="M32 64q-14 0 -23 9t-9 23q0 13 9 22q9 10 23 10q13 0 22 -10q10 -9 10 -22q0 -14 -10 -23q-9 -9 -22 -9zM32 512q-14 0 -23 9t-9 23q0 13 9 22q9 10 23 10q13 0 22 -10q10 -9 10 -22q0 -14 -10 -23q-9 -9 -22 -9z" />
    <glyph glyph-name="semicolon" unicode=";" horiz-adv-x="128" 
d="M0 64v128h64v-64zM32 512q-14 0 -23 9t-9 23q0 13 9 22q9 10 23 10q13 0 22 -10q10 -9 10 -22q0 -14 -10 -23q-9 -9 -22 -9z" />
    <glyph glyph-name="less" unicode="&#x3c;" horiz-adv-x="192" 
d="M64 192q-27 0 -46 18q-18 19 -18 46v64q0 26 18 45q19 19 46 19h64v-64h-64v-64h64v-64h-64z" />
    <glyph glyph-name="equal" unicode="=" horiz-adv-x="256" 
d="M0 192v64h192v-64h-192zM0 320v64h192v-64h-192z" />
    <glyph glyph-name="greater" unicode="&#x3e;" horiz-adv-x="192" 
d="M0 192v64h64v64h-64v64h64q26 0 45 -19t19 -45v-64q0 -27 -19 -46q-19 -18 -45 -18h-64z" />
    <glyph glyph-name="question" unicode="?" horiz-adv-x="384" 
d="M128 0v64h64v-64h-64zM128 128v128l64 64l64 64v128q0 26 -19 45t-45 19h-64q-27 0 -46 -19q-18 -19 -18 -45v-64h-64v160q0 13 9 22q9 10 23 10h256q13 0 22 -10q10 -9 10 -22v-288l-64 -64l-64 -64v-64h-64z" />
    <glyph glyph-name="at" unicode="@" horiz-adv-x="448" 
d="M256 128v128h-128v-128h128zM0 32v320h384v-256h-288v192h192v-160h64v192h-320v-256h352v-32h-384z" />
    <glyph glyph-name="A" unicode="A" 
d="M192 384q13 0 22 9q10 9 10 23v128q0 13 -10 22q-9 10 -22 10q-14 0 -23 -10q-9 -9 -9 -22v-128q0 -14 9 -23t23 -9zM32 0v608h-32v32h320q13 0 22 -10q10 -9 10 -22v-608h-128v288q0 13 -10 22q-9 10 -22 10q-14 0 -23 -10q-9 -9 -9 -22v-288h-128z" />
    <glyph glyph-name="B" unicode="B" 
d="M224 64v192h-64v-192h64zM224 384v192h-64v-192h64zM0 0v32h32v576h-32v32h320q13 0 22 -10q10 -9 10 -22v-576q0 -14 -10 -23q-9 -9 -22 -9h-320z" />
    <glyph glyph-name="C" unicode="C" horiz-adv-x="384" 
d="M32 0q-14 0 -23 9t-9 23v576q0 13 9 22q9 10 23 10h256q13 0 22 -10q10 -9 10 -22v-160h-128v96q0 13 -10 22q-9 10 -22 10q-14 0 -23 -10q-9 -9 -9 -22v-448q0 -14 9 -23t23 -9q13 0 22 9q10 9 10 23v96h128v-160q0 -14 -10 -23q-9 -9 -22 -9h-256z" />
    <glyph glyph-name="D" unicode="D" 
d="M192 64q13 0 22 9q10 9 10 23v448q0 13 -10 22q-9 10 -22 10h-32v-512h32zM0 0v32h32v576h-32v32h320q13 0 22 -10q10 -9 10 -22v-576q0 -14 -10 -23q-9 -9 -22 -9h-320z" />
    <glyph glyph-name="E" unicode="E" 
d="M0 0v32h32v576h-32v32h320q13 0 22 -10q10 -9 10 -22v-96h-160q-14 0 -23 -10q-9 -9 -9 -22v-64q0 -14 9 -23t23 -9h160v-128h-160q-14 0 -23 -10q-9 -9 -9 -22v-64q0 -14 9 -23t23 -9h160v-96q0 -14 -10 -23q-9 -9 -22 -9h-320z" />
    <glyph glyph-name="F" unicode="F" 
d="M32 0v608h-32v32h320q13 0 22 -10q10 -9 10 -22v-96h-160q-14 0 -23 -10q-9 -9 -9 -22v-64q0 -14 9 -23t23 -9h160v-128h-160q-14 0 -23 -10q-9 -9 -9 -22v-224h-128z" />
    <glyph glyph-name="G" unicode="G" 
d="M0 0v32h32v576h-32v32h320q13 0 22 -10q10 -9 10 -22v-256q0 -14 -10 -23q-9 -9 -22 -9h-96v224q0 13 -10 22q-9 10 -22 10q-14 0 -23 -10q-9 -9 -9 -22v-448q0 -14 9 -23t23 -9h64q13 0 22 9q10 9 10 23q0 13 -10 22q-9 10 -22 10h-32v128h96q13 0 22 -10q10 -9 10 -22
v-192q0 -14 -10 -23q-9 -9 -22 -9h-320z" />
    <glyph glyph-name="H" unicode="H" 
d="M0 0v640h128v-224q0 -14 9 -23t23 -9q13 0 22 9q10 9 10 23v224h160v-32h-32v-576h32v-32h-160v224q0 13 -10 22q-9 10 -22 10q-14 0 -23 -10q-9 -9 -9 -22v-224h-128z" />
    <glyph glyph-name="I" unicode="I" horiz-adv-x="224" 
d="M0 0v32h32v576h-32v32h160v-640h-160z" />
    <glyph glyph-name="J" unicode="J" horiz-adv-x="448" 
d="M0 0v192h64v-64h64v448h-128v64h384v-64h-128v-544q0 -14 -10 -23q-9 -9 -22 -9h-224z" />
    <glyph glyph-name="K" unicode="K" 
d="M0 0v32h32v576h-32v32h160v-256h64v256h128v-256q0 -27 -19 -46q-19 -18 -45 -18q26 0 45 -19t19 -45v-256h-128v256h-64v-256h-160z" />
    <glyph glyph-name="L" unicode="L" 
d="M0 0v32h32v576h-32v32h128q13 0 22 -10q10 -9 10 -22v-480h192v-96q0 -14 -10 -23q-9 -9 -22 -9h-320z" />
    <glyph glyph-name="M" unicode="M" horiz-adv-x="608" 
d="M0 0v32h32v576h-32v32h512q13 0 22 -10q10 -9 10 -22v-608h-128v544q0 13 -10 22q-9 10 -22 10q-14 0 -23 -10q-9 -9 -9 -22v-544h-128v544q0 13 -10 22q-9 10 -22 10q-14 0 -23 -10q-9 -9 -9 -22v-544h-160z" />
    <glyph glyph-name="N" unicode="N" 
d="M0 0v32h32v576h-32v32h320q13 0 22 -10q10 -9 10 -22v-608h-128v544q0 13 -10 22q-9 10 -22 10q-14 0 -23 -10q-9 -9 -9 -22v-544h-160z" />
    <glyph glyph-name="O" unicode="O" horiz-adv-x="384" 
d="M160 128q13 0 22 9q10 9 10 23v320q0 13 -10 22q-9 10 -22 10q-14 0 -23 -10q-9 -9 -9 -22v-320q0 -14 9 -23t23 -9zM32 0q-14 0 -23 9t-9 23v576q0 13 9 22q9 10 23 10h256q13 0 22 -10q10 -9 10 -22v-576q0 -14 -10 -23q-9 -9 -22 -9h-256z" />
    <glyph glyph-name="P" unicode="P" horiz-adv-x="480" 
d="M256 384q13 0 22 9q10 9 10 23v128q0 13 -10 22q-9 10 -22 10q-14 0 -23 -10q-9 -9 -9 -22v-128q0 -14 9 -23t23 -9zM32 0v608h-32v32h384q13 0 22 -10q10 -9 10 -22v-320q0 -14 -10 -23q-9 -9 -22 -9h-224v-256h-128z" />
    <glyph glyph-name="Q" unicode="Q" horiz-adv-x="512" 
d="M256 128v384h-128v-384h96l-32 64h32zM32 0q-14 0 -23 9t-9 23v576q0 13 9 22q9 10 23 10h320q13 0 22 -10q10 -9 10 -22v-544h64v-64h-416z" />
    <glyph glyph-name="R" unicode="R" 
d="M0 0v32h32v576h-32v32h320q13 0 22 -10q10 -9 10 -22v-224q0 -27 -19 -46q-19 -18 -45 -18v-64q26 0 45 -19t19 -45v-192h-128v480q0 13 -10 22q-9 10 -22 10q-14 0 -23 -10q-9 -9 -9 -22v-480h-160z" />
    <glyph glyph-name="S" unicode="S" horiz-adv-x="448" 
d="M32 0q-14 0 -23 9t-9 23v96h256v128h-192q-27 0 -46 18q-18 19 -18 46v256q0 26 18 45q19 19 46 19h288q13 0 22 -10q10 -9 10 -22v-96h-256v-128h192q26 0 45 -19t19 -45v-256q0 -27 -19 -46q-19 -18 -45 -18h-288z" />
    <glyph glyph-name="T" unicode="T" horiz-adv-x="448" 
d="M128 0v512h-128v128h384v-128h-128v-512h-128z" />
    <glyph glyph-name="U" unicode="U" 
d="M64 0q-14 0 -23 9t-9 23v576h-32v32h160v-480q0 -14 9 -23t23 -9q13 0 22 9q10 9 10 23v480h128v-608q0 -14 -10 -23q-9 -9 -22 -9h-256z" />
    <glyph glyph-name="V" unicode="V" horiz-adv-x="384" 
d="M32 0q-14 0 -23 9t-9 23v608h128v-513l32 -31l31 32h1v512h128v-608q0 -14 -10 -23q-9 -9 -22 -9h-256z" />
    <glyph glyph-name="W" unicode="W" horiz-adv-x="608" 
d="M64 0q-27 0 -46 18q-18 19 -18 46v576h128v-544q0 -14 9 -23t23 -9q13 0 22 9q10 9 10 23v544h128v-544q0 -14 9 -23t23 -9q13 0 22 9q10 9 10 23v544h160v-32h-32v-576h32v-32h-480z" />
    <glyph glyph-name="X" unicode="X" horiz-adv-x="384" 
d="M0 0v256q0 26 18 45q19 19 46 19v64q-27 0 -46 18q-18 19 -18 46v192h128v-160q0 -14 9 -23t23 -9q13 0 22 9q10 9 10 23v160h128v-192q0 -27 -19 -46q-19 -18 -45 -18v-64q26 0 45 -19t19 -45v-256h-128v224q0 13 -10 22q-9 10 -22 10q-14 0 -23 -10q-9 -9 -9 -22v-224
h-128z" />
    <glyph glyph-name="Y" unicode="Y" horiz-adv-x="352" 
d="M96 0v320q-27 0 -46 18q-18 19 -18 46v224h-32v32h96v-192q0 -27 18 -46q19 -18 46 -18q26 0 45 18q19 19 19 46v160h-32v32h96v-288q0 -14 -10 -23q-9 -9 -22 -9h-32v-320h-128z" />
    <glyph glyph-name="Z" unicode="Z" horiz-adv-x="384" 
d="M32 0q-14 0 -23 9t-9 23v160l64 64l64 64l64 64v64q0 26 -19 45t-45 19h-128v128h288q13 0 22 -10q10 -9 10 -22v-224l-64 -64l-64 -64l-64 -64q0 -27 18 -46q19 -18 46 -18h128v-128h-288z" />
    <glyph glyph-name="bracketleft" unicode="[" horiz-adv-x="192" 
d="M32 0q-14 0 -23 9t-9 23v576q0 13 9 22q9 10 23 10h96v-64h-64v-512h64v-64h-96z" />
    <glyph glyph-name="backslash" unicode="\" horiz-adv-x="704" 
d="M576 0l-64 64l-64 64l-64 64l-64 64l-64 64l-64 64l-64 64l-64 64l-64 64v64h64l64 -64l64 -64l64 -64l64 -64l64 -64l64 -64l64 -64l64 -64l64 -64v-64h-64z" />
    <glyph glyph-name="bracketright" unicode="]" horiz-adv-x="192" 
d="M0 0v64h64v512h-64v64h96q13 0 22 -10q10 -9 10 -22v-576q0 -14 -10 -23q-9 -9 -22 -9h-96z" />
    <glyph glyph-name="asciicircum" unicode="^" horiz-adv-x="256" 
d="M0 512v64q0 26 18 45q19 19 46 19h96q13 0 22 -10q10 -9 10 -22v-96h-64v64h-64v-64h-64z" />
    <glyph glyph-name="underscore" unicode="_" horiz-adv-x="448" 
d="M0 0v64h384v-64h-384z" />
    <glyph glyph-name="grave" unicode="`" horiz-adv-x="128" 
d="M64 608l-64 32h64v-32z" />
    <glyph glyph-name="a" unicode="a" 
d="M192 384q13 0 22 9q10 9 10 23v128q0 13 -10 22q-9 10 -22 10q-14 0 -23 -10q-9 -9 -9 -22v-128q0 -14 9 -23t23 -9zM32 0v608h-32v32h320q13 0 22 -10q10 -9 10 -22v-608h-128v288q0 13 -10 22q-9 10 -22 10q-14 0 -23 -10q-9 -9 -9 -22v-288h-128z" />
    <glyph glyph-name="b" unicode="b" 
d="M224 64v192h-64v-192h64zM224 384v192h-64v-192h64zM0 0v32h32v576h-32v32h320q13 0 22 -10q10 -9 10 -22v-576q0 -14 -10 -23q-9 -9 -22 -9h-320z" />
    <glyph glyph-name="c" unicode="c" horiz-adv-x="384" 
d="M32 0q-14 0 -23 9t-9 23v576q0 13 9 22q9 10 23 10h256q13 0 22 -10q10 -9 10 -22v-160h-128v96q0 13 -10 22q-9 10 -22 10q-14 0 -23 -10q-9 -9 -9 -22v-448q0 -14 9 -23t23 -9q13 0 22 9q10 9 10 23v96h128v-160q0 -14 -10 -23q-9 -9 -22 -9h-256z" />
    <glyph glyph-name="d" unicode="d" 
d="M192 64q13 0 22 9q10 9 10 23v448q0 13 -10 22q-9 10 -22 10h-32v-512h32zM0 0v32h32v576h-32v32h320q13 0 22 -10q10 -9 10 -22v-576q0 -14 -10 -23q-9 -9 -22 -9h-320z" />
    <glyph glyph-name="e" unicode="e" 
d="M0 0v32h32v576h-32v32h320q13 0 22 -10q10 -9 10 -22v-96h-160q-14 0 -23 -10q-9 -9 -9 -22v-64q0 -14 9 -23t23 -9h160v-128h-160q-14 0 -23 -10q-9 -9 -9 -22v-64q0 -14 9 -23t23 -9h160v-96q0 -14 -10 -23q-9 -9 -22 -9h-320z" />
    <glyph glyph-name="f" unicode="f" 
d="M32 0v608h-32v32h320q13 0 22 -10q10 -9 10 -22v-96h-160q-14 0 -23 -10q-9 -9 -9 -22v-64q0 -14 9 -23t23 -9h160v-128h-160q-14 0 -23 -10q-9 -9 -9 -22v-224h-128z" />
    <glyph glyph-name="g" unicode="g" 
d="M0 0v32h32v576h-32v32h320q13 0 22 -10q10 -9 10 -22v-256q0 -14 -10 -23q-9 -9 -22 -9h-96v224q0 13 -10 22q-9 10 -22 10q-14 0 -23 -10q-9 -9 -9 -22v-448q0 -14 9 -23t23 -9h64q13 0 22 9q10 9 10 23q0 13 -10 22q-9 10 -22 10h-32v128h96q13 0 22 -10q10 -9 10 -22
v-192q0 -14 -10 -23q-9 -9 -22 -9h-320z" />
    <glyph glyph-name="h" unicode="h" 
d="M0 0v640h128v-224q0 -14 9 -23t23 -9q13 0 22 9q10 9 10 23v224h160v-32h-32v-576h32v-32h-160v224q0 13 -10 22q-9 10 -22 10q-14 0 -23 -10q-9 -9 -9 -22v-224h-128z" />
    <glyph glyph-name="i" unicode="i" horiz-adv-x="224" 
d="M0 0v32h32v576h-32v32h160v-640h-160z" />
    <glyph glyph-name="j" unicode="j" horiz-adv-x="448" 
d="M0 0v192h64v-64h64v448h-128v64h384v-64h-128v-544q0 -14 -10 -23q-9 -9 -22 -9h-224z" />
    <glyph glyph-name="k" unicode="k" 
d="M0 0v32h32v576h-32v32h160v-256h64v256h128v-256q0 -27 -19 -46q-19 -18 -45 -18q26 0 45 -19t19 -45v-256h-128v256h-64v-256h-160z" />
    <glyph glyph-name="l" unicode="l" 
d="M0 0v32h32v576h-32v32h128q13 0 22 -10q10 -9 10 -22v-480h192v-96q0 -14 -10 -23q-9 -9 -22 -9h-320z" />
    <glyph glyph-name="m" unicode="m" horiz-adv-x="608" 
d="M0 0v32h32v576h-32v32h512q13 0 22 -10q10 -9 10 -22v-608h-128v544q0 13 -10 22q-9 10 -22 10q-14 0 -23 -10q-9 -9 -9 -22v-544h-128v544q0 13 -10 22q-9 10 -22 10q-14 0 -23 -10q-9 -9 -9 -22v-544h-160z" />
    <glyph glyph-name="n" unicode="n" 
d="M0 0v32h32v576h-32v32h320q13 0 22 -10q10 -9 10 -22v-608h-128v544q0 13 -10 22q-9 10 -22 10q-14 0 -23 -10q-9 -9 -9 -22v-544h-160z" />
    <glyph glyph-name="o" unicode="o" horiz-adv-x="384" 
d="M160 128q13 0 22 9q10 9 10 23v320q0 13 -10 22q-9 10 -22 10q-14 0 -23 -10q-9 -9 -9 -22v-320q0 -14 9 -23t23 -9zM32 0q-14 0 -23 9t-9 23v576q0 13 9 22q9 10 23 10h256q13 0 22 -10q10 -9 10 -22v-576q0 -14 -10 -23q-9 -9 -22 -9h-256z" />
    <glyph glyph-name="p" unicode="p" horiz-adv-x="480" 
d="M256 384q13 0 22 9q10 9 10 23v128q0 13 -10 22q-9 10 -22 10q-14 0 -23 -10q-9 -9 -9 -22v-128q0 -14 9 -23t23 -9zM32 0v608h-32v32h384q13 0 22 -10q10 -9 10 -22v-320q0 -14 -10 -23q-9 -9 -22 -9h-224v-256h-128z" />
    <glyph glyph-name="q" unicode="q" horiz-adv-x="512" 
d="M256 128v384h-128v-384h96l-32 64h32zM32 0q-14 0 -23 9t-9 23v576q0 13 9 22q9 10 23 10h320q13 0 22 -10q10 -9 10 -22v-544h64v-64h-416z" />
    <glyph glyph-name="r" unicode="r" 
d="M0 0v32h32v576h-32v32h320q13 0 22 -10q10 -9 10 -22v-224q0 -27 -19 -46q-19 -18 -45 -18v-64q26 0 45 -19t19 -45v-192h-128v480q0 13 -10 22q-9 10 -22 10q-14 0 -23 -10q-9 -9 -9 -22v-480h-160z" />
    <glyph glyph-name="s" unicode="s" horiz-adv-x="448" 
d="M32 0q-14 0 -23 9t-9 23v96h256v128h-192q-27 0 -46 18q-18 19 -18 46v256q0 26 18 45q19 19 46 19h288q13 0 22 -10q10 -9 10 -22v-96h-256v-128h192q26 0 45 -19t19 -45v-256q0 -27 -19 -46q-19 -18 -45 -18h-288z" />
    <glyph glyph-name="t" unicode="t" horiz-adv-x="448" 
d="M128 0v512h-128v128h384v-128h-128v-512h-128z" />
    <glyph glyph-name="u" unicode="u" 
d="M64 0q-14 0 -23 9t-9 23v576h-32v32h160v-480q0 -14 9 -23t23 -9q13 0 22 9q10 9 10 23v480h128v-608q0 -14 -10 -23q-9 -9 -22 -9h-256z" />
    <glyph glyph-name="v" unicode="v" horiz-adv-x="384" 
d="M32 0q-14 0 -23 9t-9 23v608h128v-513l32 -31l31 32h1v512h128v-608q0 -14 -10 -23q-9 -9 -22 -9h-256z" />
    <glyph glyph-name="w" unicode="w" horiz-adv-x="608" 
d="M64 0q-27 0 -46 18q-18 19 -18 46v576h128v-544q0 -14 9 -23t23 -9q13 0 22 9q10 9 10 23v544h128v-544q0 -14 9 -23t23 -9q13 0 22 9q10 9 10 23v544h160v-32h-32v-576h32v-32h-480z" />
    <glyph glyph-name="x" unicode="x" horiz-adv-x="384" 
d="M0 0v256q0 26 18 45q19 19 46 19v64q-27 0 -46 18q-18 19 -18 46v192h128v-160q0 -14 9 -23t23 -9q13 0 22 9q10 9 10 23v160h128v-192q0 -27 -19 -46q-19 -18 -45 -18v-64q26 0 45 -19t19 -45v-256h-128v224q0 13 -10 22q-9 10 -22 10q-14 0 -23 -10q-9 -9 -9 -22v-224
h-128z" />
    <glyph glyph-name="y" unicode="y" horiz-adv-x="352" 
d="M96 0v320q-27 0 -46 18q-18 19 -18 46v224h-32v32h96v-192q0 -27 18 -46q19 -18 46 -18q26 0 45 18q19 19 19 46v160h-32v32h96v-288q0 -14 -10 -23q-9 -9 -22 -9h-32v-320h-128z" />
    <glyph glyph-name="z" unicode="z" horiz-adv-x="384" 
d="M32 0q-14 0 -23 9t-9 23v160l64 64l64 64l64 64v64q0 26 -19 45t-45 19h-128v128h288q13 0 22 -10q10 -9 10 -22v-224l-64 -64l-64 -64l-64 -64q0 -27 18 -46q19 -18 46 -18h128v-128h-288z" />
    <glyph glyph-name="braceleft" unicode="{" horiz-adv-x="256" 
d="M128 0q-27 0 -46 18q-18 19 -18 46v128q-27 0 -46 18q-18 19 -18 46v64q0 26 18 45q19 19 46 19v192q0 26 18 45q19 19 46 19h64q-27 0 -46 -19q-18 -19 -18 -45v-512q0 -27 18 -46q19 -18 46 -18h-64z" />
    <glyph glyph-name="bar" unicode="|" horiz-adv-x="128" 
d="M0 0v640h64v-640h-64z" />
    <glyph glyph-name="braceright" unicode="}" horiz-adv-x="256" 
d="M0 0q26 0 45 18q19 19 19 46v512q0 26 -19 45t-45 19h64q26 0 45 -19t19 -45v-192h32q13 0 22 -10q10 -9 10 -22v-128q0 -14 -10 -23q-9 -9 -22 -9h-32v-128q0 -27 -19 -46q-19 -18 -45 -18h-64z" />
    <glyph glyph-name="asciitilde" unicode="~" horiz-adv-x="320" 
d="M160 256q-14 0 -23 9t-9 23q0 13 -10 22q-9 10 -22 10q-14 0 -23 -10q-9 -9 -9 -22v0q0 -14 -10 -23q-9 -9 -22 -9q-14 0 -23 9t-9 23q0 13 9 22q9 10 23 10v0q13 0 22 9q10 9 10 23q0 13 9 22q9 10 23 10q13 0 22 -10q10 -9 10 -22q0 -14 9 -23t23 -9q13 0 22 9
q10 9 10 23v0q0 13 9 22q9 10 23 10q13 0 22 -10q10 -9 10 -22q0 -14 -10 -23q-9 -9 -22 -9h-32v0h32q-14 0 -23 -10q-9 -9 -9 -22q0 -14 -10 -23q-9 -9 -22 -9z" />
    <glyph glyph-name="quoteleft" unicode="&#x2018;" horiz-adv-x="128" 
d="M0 512v64l64 64v-128h-64z" />
    <glyph glyph-name="quoteright" unicode="&#x2019;" horiz-adv-x="128" 
d="M0 512v128h64v-64z" />
    <glyph glyph-name="quotedblleft" unicode="&#x201c;" horiz-adv-x="192" 
d="M0 512v64l64 64v-64l64 64v-128h-128z" />
    <glyph glyph-name="quotedblright" unicode="&#x201d;" horiz-adv-x="192" 
d="M0 512v128h128v-64l-64 -64v64z" />
  </font>
</defs>
</svg>
