<?xml version="1.0" standalone="no"?>
<!DOCTYPE svg PUBLIC "-//W3C//DTD SVG 1.1//EN" "http://www.w3.org/Graphics/SVG/1.1/DTD/svg11.dtd" >
<svg>
<metadata>
Created by FontForge 20090914 at Fri Feb 24 12:22:47 2012
 By root
Copyright (c) 2009 by Tino Meinert. All rights reserved.
</metadata>
<defs>
<font id="CPMono_v07Black" horiz-adv-x="650" >
  <font-face 
    font-family="CPMono_v07 Black"
    font-weight="309"
    font-stretch="normal"
    units-per-em="1000"
    panose-1="2 0 5 9 3 0 0 2 0 4"
    ascent="760"
    descent="-240"
    x-height="556"
    cap-height="684"
    bbox="-270 -253 920 937"
    underline-thickness="160"
    underline-position="2"
    stemh="165"
    stemv="180"
    unicode-range="U+0020-U+F7FF"
  />
<missing-glyph 
d="M0 -158v1000h650v-1000h-650zM95 747v-810h460v810h-460zM127 0l140 342l-140 342h115l82 -202l83 202h115l-140 -342l140 -342h-115l-83 201l-82 -201h-115z" />
    <glyph glyph-name=".notdef" 
d="M0 -158v1000h650v-1000h-650zM95 747v-810h460v810h-460zM127 0l140 342l-140 342h115l82 -202l83 202h115l-140 -342l140 -342h-115l-83 201l-82 -201h-115z" />
    <glyph glyph-name="space" unicode=" " 
 />
    <glyph glyph-name="nbspace" unicode="&#xa0;" 
 />
    <glyph glyph-name="A" unicode="A" 
d="M418 684l198 -501v-183h-180v156v3h-222v-3v-156h-180v183l198 501h186zM322 478l-55 -159h115l-54 159h-6z" />
    <glyph glyph-name="B" unicode="B" 
d="M80 0v684h310c120 0 200 -50 200 -170v-46c0 -40 -23 -101 -87 -120c64 -19 87 -80 87 -120v-58c0 -120 -80 -170 -200 -170h-310zM260 428h105c30 0 45 16 45 41v12c0 25 -15 38 -45 38h-105v-91zM260 168h105c30 0 45 13 45 38v22c0 25 -15 38 -45 38h-105v-98z" />
    <glyph glyph-name="C" unicode="C" 
d="M590 243v-73c0 -120 -80 -170 -200 -170h-130c-120 0 -200 50 -200 170v344c0 120 80 170 200 170h130c120 0 200 -50 200 -170v-63l-180 -45v75c0 25 -15 38 -45 38h-80c-30 0 -45 -13 -45 -38v-275c0 -25 15 -38 45 -38h80c30 0 45 13 45 38v87z" />
    <glyph glyph-name="D" unicode="D" 
d="M590 514v-344c0 -120 -75 -170 -195 -170h-335v684h335c120 0 195 -50 195 -170zM410 206v275c0 25 -15 38 -45 38h-125v-351h125c30 0 45 13 45 38z" />
    <glyph glyph-name="E" unicode="E" 
d="M567 0h-490v684h490v-165h-310v-87h246v-162h-246v-102h310v-168z" />
    <glyph glyph-name="F" unicode="F" 
d="M592 519h-320v-119h266v-162h-266v-238h-180v684h500v-165z" />
    <glyph glyph-name="G" unicode="G" 
d="M588 390v-220c0 -120 -80 -170 -200 -170h-126c-121 0 -200 50 -200 170v344c0 120 80 170 200 170h136c120 0 190 -50 190 -170v-33l-180 -45v45c0 25 -15 38 -45 38h-76c-30 0 -45 -13 -45 -38v-275c0 -25 15 -38 45 -38h88c27 0 38 8 38 33v49h-73v140h248z" />
    <glyph glyph-name="H" unicode="H" 
d="M597 0h-180v265h-185v-265h-180v684h180v-257h185v257h180v-684z" />
    <glyph glyph-name="I" unicode="I" 
d="M65 0v168h170v351h-160v165h500v-165h-160v-351h170v-168h-520z" />
    <glyph glyph-name="J" unicode="J" 
d="M100 519v165h470v-514c0 -120 -80 -170 -200 -170h-110c-120 0 -200 50 -200 170v83l180 50v-97c0 -25 15 -38 45 -38h60c30 0 45 13 45 38v313h-290z" />
    <glyph glyph-name="K" unicode="K" 
d="M591 0h-175v157l-115 121l-73 -76v-202h-180v684h180v-231h5l172 231h231l-223 -270l178 -178v-236z" />
    <glyph glyph-name="L" unicode="L" 
d="M595 0h-530v684h180v-516h350v-168z" />
    <glyph glyph-name="M" unicode="M" 
d="M625 0h-180v367h-6l-58 -162h-112l-58 162h-6v-367h-180v684h190l110 -245l110 245h190v-684z" />
    <glyph glyph-name="N" unicode="N" 
d="M600 0h-175l-187 336h-8v-336h-180v684h173l189 -351h8v351h180v-684z" />
    <glyph glyph-name="O" unicode="O" 
d="M400 0h-150c-120 0 -200 50 -200 170v344c0 120 80 170 200 170h150c120 0 200 -50 200 -170v-344c0 -120 -80 -170 -200 -170zM275 168h100c30 0 45 13 45 38v275c0 25 -15 38 -45 38h-100c-30 0 -45 -13 -45 -38v-275c0 -25 15 -38 45 -38z" />
    <glyph glyph-name="P" unicode="P" 
d="M600 514v-114c0 -120 -80 -170 -200 -170h-130v-230h-180v684h310c120 0 200 -50 200 -170zM420 440v41c0 25 -15 38 -45 38h-105v-127h105c30 0 45 23 45 48z" />
    <glyph glyph-name="Q" unicode="Q" 
d="M462 -103l-82 103h-127c-120 0 -200 50 -200 170v344c0 120 80 170 200 170h140c120 0 200 -50 200 -170v-344c0 -58 -19 -99 -51 -127l125 -146h-205zM278 168h90c30 0 45 13 45 38v275c0 25 -15 38 -45 38h-90c-30 0 -45 -13 -45 -38v-275c0 -25 15 -38 45 -38z" />
    <glyph glyph-name="R" unicode="R" 
d="M590 0h-180v123l-84 107h-77v-230h-180v684h320c120 0 201 -50 201 -170v-99c0 -63 -42 -117 -89 -139l89 -111v-165zM249 392h116c30 0 45 13 45 38v51c0 25 -15 38 -45 38h-116v-127z" />
    <glyph glyph-name="S" unicode="S" 
d="M245 233v-27c0 -25 15 -38 45 -38h70c30 0 45 13 45 38v22c0 25 -15 38 -45 38h-105c-120 0 -190 56 -190 176v67c0 120 90 175 210 175h110c120 0 200 -50 200 -170v-13l-180 -45v25c0 25 -15 38 -45 38h-70c-30 0 -45 -13 -45 -38v-15c0 -25 15 -38 45 -38h104
c120 0 191 -54 191 -174v-79c0 -120 -90 -175 -210 -175h-110c-120 0 -200 50 -200 170v18z" />
    <glyph glyph-name="T" unicode="T" 
d="M615 519h-200v-519h-180v519h-200v165h580v-165z" />
    <glyph glyph-name="U" unicode="U" 
d="M590 684v-514c0 -120 -80 -170 -200 -170h-130c-120 0 -200 50 -200 170v514h180v-478c0 -25 15 -38 45 -38h80c30 0 45 13 45 38v478h180z" />
    <glyph glyph-name="V" unicode="V" 
d="M616 482l-193 -482h-196l-193 482v202h180v-178l109 -302h4l109 302v178h180v-202z" />
    <glyph glyph-name="W" unicode="W" 
d="M269 480h112l43 -179h10l31 239v144h165v-182l-88 -502h-162l-51 174h-8l-51 -174h-162l-88 502v182h165v-144l31 -239h10z" />
    <glyph glyph-name="X" unicode="X" 
d="M325 461l78 87v136h180v-191l-139 -136l158 -165v-192h-180v134l-97 110l-97 -110v-134h-180v192l158 165l-139 136v191h180v-136z" />
    <glyph glyph-name="Y" unicode="Y" 
d="M611 482l-195 -193v-289h-180v289l-197 193v202h180v-136l106 -115l106 115v136h180v-202z" />
    <glyph glyph-name="Z" unicode="Z" 
d="M592 0h-535v158l304 361h-291v165h517v-157l-305 -359h310v-168z" />
    <glyph glyph-name="A.alt1" 
d="M419 684l215 -684h-202l-26 105h-162l-26 -105h-202l215 684h188zM322 448l-40 -183h86l-40 183h-6z" />
    <glyph glyph-name="K.alt1" 
d="M641 0h-212l-167 253l-34 -34v-219h-180v684h180v-219h5l172 219h224l-257 -303z" />
    <glyph glyph-name="R.alt1" 
d="M622 0h-199l-97 230h-82v-230h-180v684h320c120 0 201 -50 201 -170v-104c0 -74 -29 -130 -88 -153zM244 392h116c30 0 45 13 45 38v51c0 25 -15 38 -45 38h-116v-127z" />
    <glyph glyph-name="V.alt1" 
d="M629 684l-210 -684h-188l-210 684h193l109 -408h4l109 408h193z" />
    <glyph glyph-name="W.alt1" 
d="M274 490h101l44 -158h6l45 352h170l-101 -684h-154l-56 183h-8l-56 -183h-154l-101 684h170l45 -352h6z" />
    <glyph glyph-name="X.alt1" 
d="M325 492l90 192h203l-177 -325l191 -359h-209l-98 210l-98 -210h-209l191 359l-177 325h203z" />
    <glyph glyph-name="Y.alt1" 
d="M634 684l-220 -385v-299h-180v299l-218 385h207l102 -212l102 212h207z" />
    <glyph glyph-name="zero" unicode="0" 
d="M390 0h-130c-120 0 -200 50 -200 170v344c0 120 80 170 200 170h130c120 0 200 -50 200 -170v-344c0 -120 -80 -170 -200 -170zM285 168h80c30 0 45 13 45 38v275c0 25 -15 38 -45 38h-80c-30 0 -45 -13 -45 -38v-275c0 -25 15 -38 45 -38z" />
    <glyph glyph-name="one" unicode="1" 
d="M450 684v-516h166v-168h-523v168h177v351h-148v165h328z" />
    <glyph glyph-name="two" unicode="2" 
d="M590 0h-530v145l325 271c20 18 25 26 25 44v21c0 25 -15 38 -45 38h-80c-30 0 -45 -13 -45 -38v-55l-180 45v43c0 120 80 170 200 170h130c120 0 200 -50 200 -170v-66c0 -49 -26 -97 -74 -134l-176 -143v-3h250v-168z" />
    <glyph glyph-name="three" unicode="3" 
d="M60 200l180 45v-39c0 -25 15 -38 45 -38h80c30 0 45 13 45 38v21c0 25 -15 38 -45 38h-80v160h80c30 0 45 16 45 41v15c0 25 -15 38 -45 38h-80c-30 0 -45 -13 -45 -38v-35l-180 45v23c0 120 80 170 200 170h130c120 0 200 -50 200 -170v-49c0 -40 -23 -101 -87 -120
c64 -19 87 -80 87 -120v-55c0 -120 -80 -170 -200 -170h-130c-120 0 -200 50 -200 170v30z" />
    <glyph glyph-name="four" unicode="4" 
d="M621 141h-89v-141h-180v141h-323v162l283 381h220v-378h89v-165zM352 306v156l-110 -156h110z" />
    <glyph glyph-name="five" unicode="5" 
d="M595 286v-116c0 -120 -80 -170 -200 -170h-120c-120 0 -200 50 -200 170v19l180 44v-27c0 -25 15 -38 45 -38h70c30 0 45 13 45 38v51c0 25 -15 38 -45 38h-62c-29 0 -53 -11 -53 -32h-180v421h498v-165h-318v-89c26 16 68 27 110 27h36c99 0 194 -47 194 -171z" />
    <glyph glyph-name="six" unicode="6" 
d="M600 259v-89c0 -120 -80 -170 -200 -170h-130c-120 0 -200 50 -200 170v344c0 120 75 170 195 170h135c120 0 200 -50 200 -170v-13l-180 -40v20c0 25 -15 38 -45 38h-80c-30 0 -45 -13 -45 -38v-71c10 9 47 27 110 27h45c131 0 195 -58 195 -178zM420 206v31
c0 25 -15 38 -45 38h-72c-29 0 -53 -9 -53 -38v-31c0 -25 15 -38 45 -38h80c30 0 45 13 45 38z" />
    <glyph glyph-name="seven" unicode="7" 
d="M588 527l-221 -527h-200l228 519h-334v165h527v-157z" />
    <glyph glyph-name="eight" unicode="8" 
d="M585 225v-55c0 -120 -80 -170 -200 -170h-120c-120 0 -200 50 -200 170v55c0 40 23 101 77 120c-54 19 -77 80 -77 120v49c0 120 80 170 200 170h120c120 0 200 -50 200 -170v-49c0 -40 -23 -101 -77 -120c54 -19 77 -80 77 -120zM405 464v17c0 25 -15 38 -45 38h-70
c-30 0 -45 -13 -45 -38v-17c0 -25 15 -38 45 -38h70c30 0 45 13 45 38zM405 206v20c0 25 -15 38 -45 38h-70c-30 0 -45 -13 -45 -38v-20c0 -25 15 -38 45 -38h70c30 0 45 13 45 38z" />
    <glyph glyph-name="nine" unicode="9" 
d="M50 424v90c0 120 80 170 200 170h130c120 0 200 -50 200 -170v-344c0 -120 -80 -170 -200 -170h-130c-120 0 -200 50 -200 170v9l180 48v-21c0 -25 15 -38 45 -38h80c30 0 45 13 45 38v67c-10 -9 -51 -20 -114 -20h-51c-131 0 -185 51 -185 171zM230 481v-28
c0 -25 15 -38 45 -38h80c26 0 45 14 45 38v28c0 25 -15 38 -45 38h-80c-30 0 -45 -13 -45 -38z" />
    <glyph glyph-name="a" unicode="a" 
d="M562 0h-170v36h-3c-28 -23 -67 -36 -127 -36h-29c-97 0 -166 44 -166 161v38c0 115 70 160 166 160h19c60 0 109 -12 137 -33h3v40c0 32 -18 45 -50 45h-49c-23 0 -31 -11 -31 -24v-13l-170 40v13c0 76 71 129 187 129h78c120 0 205 -65 205 -185v-371zM322 219h-45
c-22 0 -40 -10 -40 -31v-9c0 -21 18 -31 40 -31h45c29 0 70 7 70 31v9c0 27 -44 31 -70 31z" />
    <glyph glyph-name="b" unicode="b" 
d="M370 391h-26c-41 0 -79 -26 -79 -78v-67c0 -52 38 -78 79 -78h26c35 0 55 20 55 63v97c0 43 -20 63 -55 63zM265 46v-46h-180v684h180v-174h3c23 26 67 46 127 46h46c99 0 164 -56 164 -175v-206c0 -120 -64 -175 -164 -175h-46c-60 0 -104 20 -127 46h-3z" />
    <glyph glyph-name="c" unicode="c" 
d="M252 353v-147c0 -25 15 -38 45 -38h55c30 0 45 13 45 38v35l180 -50v-21c0 -120 -80 -170 -200 -170h-105c-120 0 -200 50 -200 170v216c0 120 80 170 200 170h105c120 0 200 -50 200 -170v-33l-180 -45v45c0 25 -15 38 -45 38h-55c-30 0 -45 -13 -45 -38z" />
    <glyph glyph-name="d" unicode="d" 
d="M306 391h-26c-35 0 -55 -20 -55 -63v-97c0 -43 20 -63 55 -63h26c41 0 79 26 79 78v67c0 52 -38 78 -79 78zM385 0v46h-3c-23 -26 -67 -46 -127 -46h-46c-100 0 -164 55 -164 175v206c0 119 65 175 164 175h46c60 0 104 -20 127 -46h3v174h180v-684h-180z" />
    <glyph glyph-name="e" unicode="e" 
d="M569 373v-157h-319v-28c0 -25 15 -40 45 -40h55c30 0 49 8 49 28v22l170 -30v-20c0 -116 -91 -148 -210 -148h-79c-120 0 -200 50 -200 170v216c0 120 80 170 200 170h89c120 0 200 -63 200 -183zM250 372v-21h149v19c0 22 -5 41 -45 41h-59c-39 0 -45 -17 -45 -39z" />
    <glyph glyph-name="f" unicode="f" 
d="M54 254v162h129v98c0 120 80 170 200 170h198l-39 -165h-134c-30 0 -45 -13 -45 -38v-65h170v-162h-170v-254h-180v254h-129z" />
    <glyph glyph-name="g" unicode="g" 
d="M395 556h180v-626c0 -120 -93 -170 -213 -170h-108c-119 0 -199 49 -199 165v11l180 45v-23c0 -25 15 -38 45 -38h70c30 0 45 13 45 38v88h-3c-23 -26 -67 -46 -127 -46h-46c-100 0 -164 55 -164 175v206c0 119 65 175 164 175h46c60 0 104 -20 127 -46h3v46zM290 168h26
c41 0 79 26 79 78v67c0 52 -38 78 -79 78h-26c-35 0 -55 -20 -55 -63v-97c0 -43 20 -63 55 -63z" />
    <glyph glyph-name="h" unicode="h" 
d="M595 0h-180v328c0 43 -20 63 -55 63h-26c-41 0 -79 -26 -79 -78v-313h-180v684h180v-174h3c23 26 67 46 127 46h46c99 0 164 -56 164 -175v-381z" />
    <glyph glyph-name="i" unicode="i" 
d="M74 0v168h196v223h-177v165h357v-388h166v-168h-542zM450 628h-180v160h180v-160z" />
    <glyph glyph-name="j" unicode="j" 
d="M555 556v-626c0 -120 -93 -170 -213 -170h-88c-119 0 -199 49 -199 165v76l180 50v-93c0 -25 15 -38 45 -38h50c30 0 45 13 45 38v433h-232v165h412zM555 628h-180v160h180v-160z" />
    <glyph glyph-name="k" unicode="k" 
d="M571 0h-180v142l-91 95l-72 -76v-161h-180v684h180v-307h2l153 179h239l-204 -199l153 -160v-197z" />
    <glyph glyph-name="l" unicode="l" 
d="M64 0v168h196v351h-177v165h357v-516h166v-168h-542z" />
    <glyph glyph-name="m" unicode="m" 
d="M21 0v556h143v-55h3c12 31 40 55 92 55h39c56 0 72 -24 81 -55h2c12 31 40 55 92 55h37c87 0 119 -55 119 -172v-384h-158v361c0 27 -7 35 -19 35h-27c-13 0 -23 -14 -23 -56v-340h-154v371c0 17 -5 25 -17 25h-29c-13 0 -23 -14 -23 -56v-340h-158z" />
    <glyph glyph-name="n" unicode="n" 
d="M585 0h-180v328c0 43 -20 63 -55 63h-26c-41 0 -79 -26 -79 -78v-313h-180v556h180v-46h3c23 26 67 46 127 46h46c99 0 164 -55 164 -175v-381z" />
    <glyph glyph-name="o" unicode="o" 
d="M380 0h-110c-120 0 -200 50 -200 170v216c0 120 80 170 200 170h110c120 0 200 -50 200 -170v-216c0 -120 -80 -170 -200 -170zM295 168h60c30 0 45 13 45 38v147c0 25 -15 38 -45 38h-60c-30 0 -45 -13 -45 -38v-147c0 -25 15 -38 45 -38z" />
    <glyph glyph-name="p" unicode="p" 
d="M255 556v-46h3c23 26 67 46 127 46h46c99 0 164 -56 164 -175v-206c0 -120 -64 -175 -164 -175h-46c-60 0 -104 20 -127 46h-3v-247h-180v757h180zM334 168h26c35 0 55 20 55 63v97c0 43 -20 63 -55 63h-26c-41 0 -79 -26 -79 -78v-67c0 -52 38 -78 79 -78z" />
    <glyph glyph-name="q" unicode="q" 
d="M395 510v46h180v-757h-180v247h-3c-23 -26 -67 -46 -127 -46h-46c-100 0 -164 55 -164 175v206c0 119 65 175 164 175h46c60 0 104 -20 127 -46h3zM290 168h26c41 0 79 26 79 78v67c0 52 -38 78 -79 78h-26c-35 0 -55 -20 -55 -63v-97c0 -43 20 -63 55 -63z" />
    <glyph glyph-name="r" unicode="r" 
d="M612 338l-180 -45v42c0 43 -13 56 -48 56h-27c-42 0 -80 -26 -80 -78v-313h-180v556h180v-46h3c23 26 67 46 127 46h41c99 0 164 -56 164 -175v-43z" />
    <glyph glyph-name="s" unicode="s" 
d="M256 191v-20c0 -14 5 -23 41 -23h57c28 0 40 9 40 26v10c0 17 -12 29 -55 29h-68c-132 0 -185 43 -185 153v32c0 118 90 158 202 158h90c142 0 186 -57 186 -132v-11l-170 -41v16c0 14 -5 23 -41 23h-57c-23 0 -40 -6 -40 -22v-11c0 -17 12 -25 55 -25h58
c132 0 195 -55 195 -165v-30c0 -118 -90 -158 -202 -158h-90c-142 0 -186 57 -186 132v21z" />
    <glyph glyph-name="t" unicode="t" 
d="M34 394v162h149v128h180v-128h195v-162h-195v-188c0 -25 15 -38 45 -38h139l29 -168h-193c-120 0 -200 47 -200 167v227h-149z" />
    <glyph glyph-name="u" unicode="u" 
d="M65 556h180v-325c0 -43 20 -63 55 -63h26c41 0 79 26 79 78v310h180v-556h-180v46h-3c-23 -26 -67 -46 -127 -46h-46c-100 0 -164 55 -164 175v381z" />
    <glyph glyph-name="v" unicode="v" 
d="M414 556h180v-202l-171 -354h-196l-171 354v202h180v-173l87 -199h4l87 199v173z" />
    <glyph glyph-name="w" unicode="w" 
d="M274 448h102l51 -177h7l25 116v169h170v-180l-107 -376h-148l-46 158h-6l-46 -158h-148l-107 376v180h170v-169l25 -116h7z" />
    <glyph glyph-name="x" unicode="x" 
d="M325 391l64 66v99h180v-150l-126 -112l145 -133v-161h-180v107l-83 81l-83 -81v-107h-180v161l145 133l-126 112v150h180v-99z" />
    <glyph glyph-name="y" unicode="y" 
d="M405 556h180v-626c0 -120 -93 -170 -213 -170h-108c-119 0 -199 49 -199 165v11l180 45v-23c0 -25 15 -38 45 -38h70c30 0 45 13 45 38v88h-3c-23 -26 -67 -46 -127 -46h-46c-100 0 -164 55 -164 175v381h180v-325c0 -43 20 -63 55 -63h26c41 0 79 26 79 78v310z" />
    <glyph glyph-name="z" unicode="z" 
d="M577 0h-505v147l258 247v2h-245v160h487v-145l-255 -246v-2h260v-163z" />
    <glyph glyph-name="dotlessi" unicode="&#x131;" 
d="M54 0v168h196v223h-177v165h357v-388h166v-168h-542z" />
    <glyph glyph-name="k.alt1" 
d="M611 0h-212l-127 215l-54 -54v-161h-180v684h180v-303h2l153 175h239l-217 -220z" />
    <glyph glyph-name="v.alt1" 
d="M424 556h195l-187 -556h-214l-187 556h195l97 -342h4z" />
    <glyph glyph-name="w.alt1" 
d="M276 418h98l33 -122h5l37 260h176l-96 -556h-155l-47 143h-4l-47 -143h-155l-96 556h176l37 -260h5z" />
    <glyph glyph-name="x.alt1" 
d="M327 421l72 135h202l-163 -259l186 -297h-204l-93 166l-93 -166h-204l186 297l-163 259h202z" />
    <glyph glyph-name="g.short" 
d="M395 556h180v-556c0 -120 -93 -170 -213 -170h-108c-119 0 -199 49 -199 165v16l180 45v-28c0 -25 15 -38 45 -38h70c30 0 45 13 45 38v98h-3c-23 -26 -67 -46 -127 -46h-46c-100 0 -164 55 -164 175v126c0 119 65 175 164 175h46c60 0 104 -20 127 -46h3v46zM290 242h26
c41 0 79 16 79 58v33c0 42 -38 58 -79 58h-26c-35 0 -55 -20 -55 -53v-43c0 -33 20 -53 55 -53z" />
    <glyph glyph-name="j.short" 
d="M555 556v-556c0 -120 -93 -170 -213 -170h-88c-119 0 -199 49 -199 165v76l180 50v-93c0 -25 15 -38 45 -38h50c30 0 45 13 45 38v363h-212v165h392zM555 628h-180v160h180v-160z" />
    <glyph glyph-name="y.short" 
d="M405 556h180v-556c0 -120 -93 -170 -213 -170h-108c-119 0 -199 49 -199 165v21l180 45v-33c0 -25 15 -38 45 -38h70c30 0 45 13 45 38v98h-3c-23 -26 -67 -46 -127 -46h-46c-100 0 -164 55 -164 175v301h180v-261c0 -33 20 -53 55 -53h26c41 0 79 16 79 58v256z" />
    <glyph glyph-name="p.short" 
d="M255 556v-46h3c23 26 67 46 127 46h46c99 0 164 -56 164 -175v-206c0 -120 -64 -175 -164 -175h-46c-60 0 -104 20 -127 46h-3v-216h-180v726h180zM334 168h26c35 0 55 20 55 63v97c0 43 -20 63 -55 63h-26c-41 0 -79 -26 -79 -78v-67c0 -52 38 -78 79 -78z" />
    <glyph glyph-name="q.short" 
d="M395 510v46h180v-726h-180v216h-3c-23 -26 -67 -46 -127 -46h-46c-100 0 -164 55 -164 175v206c0 119 65 175 164 175h46c60 0 104 -20 127 -46h3zM290 168h26c41 0 79 26 79 78v67c0 52 -38 78 -79 78h-26c-35 0 -55 -20 -55 -63v-97c0 -43 20 -63 55 -63z" />
    <glyph glyph-name="A.sc" unicode="&#xf761;" 
d="M405 556l203 -402v-154h-175v92v11h-216v-11v-92h-175v154l204 402h159zM324 368l-54 -115h110l-54 115h-2z" />
    <glyph glyph-name="B.sc" unicode="&#xf762;" 
d="M85 0v556h290c120 0 190 -32 190 -141v-20c0 -48 -20 -91 -65 -111c50 -19 65 -58 65 -112v-24c0 -116 -70 -148 -190 -148h-290zM255 347h113c18 0 27 9 27 22v22c0 13 -9 22 -27 22h-113v-66zM255 146h113c18 0 27 9 27 22v27c0 13 -9 22 -27 22h-113v-71z" />
    <glyph glyph-name="C.sc" unicode="&#xf763;" 
d="M580 198v-33c0 -120 -70 -165 -190 -165h-130c-120 0 -190 45 -190 165v226c0 120 70 165 190 165h130c120 0 190 -45 190 -165v-23l-180 -50v35c0 25 -17 38 -43 38h-64c-26 0 -43 -13 -43 -38v-147c0 -25 17 -38 43 -38h64c26 0 43 13 43 38v47z" />
    <glyph glyph-name="D.sc" unicode="&#xf764;" 
d="M590 391v-226c0 -120 -70 -165 -190 -165h-320v556h320c120 0 190 -45 190 -165zM410 206v147c0 25 -17 38 -43 38h-107v-223h107c26 0 43 13 43 38z" />
    <glyph glyph-name="E.sc" unicode="&#xf765;" 
d="M555 0h-460v556h460v-150h-285v-53h221v-140h-221v-58h285v-155z" />
    <glyph glyph-name="F.sc" unicode="&#xf766;" 
d="M570 391h-290v-73h226v-157h-226v-161h-180v556h470v-165z" />
    <glyph glyph-name="G.sc" unicode="&#xf767;" 
d="M577 326v-146c0 -120 -70 -180 -190 -180h-125c-120 0 -190 45 -190 165v226c0 120 70 165 190 165h125c118 0 190 -48 190 -155v-9l-175 -42v21c0 16 -14 30 -36 30h-71c-26 0 -43 -13 -43 -38v-167c0 -25 17 -38 43 -38h86c22 0 36 14 36 30v18h-83v120h243z" />
    <glyph glyph-name="H.sc" unicode="&#xf768;" 
d="M575 0h-180v201h-140v-201h-180v556h180v-193h140v193h180v-556z" />
    <glyph glyph-name="I.sc" unicode="&#xf769;" 
d="M93 0v168h141v223h-132v165h444v-165h-132v-223h142v-168h-463z" />
    <glyph glyph-name="J.sc" unicode="&#xf76a;" 
d="M140 391v165h430v-391c0 -120 -70 -165 -190 -165h-110c-120 0 -190 45 -190 165v58l180 50v-67c0 -25 17 -38 43 -38h44c26 0 43 13 43 38v185h-250z" />
    <glyph glyph-name="K.sc" unicode="&#xf76b;" 
d="M579 0h-175v111l-102 102l-54 -56v-157h-180v556h180v-174h5l149 174h225l-213 -218l165 -159v-179z" />
    <glyph glyph-name="L.sc" unicode="&#xf76c;" 
d="M577 0h-455v556h180v-388h275v-168z" />
    <glyph glyph-name="M.sc" unicode="&#xf76d;" 
d="M615 0h-175v238h-10l-57 -141h-96l-57 141h-10v-238h-175v556h175l114 -225h2l114 225h175v-556z" />
    <glyph glyph-name="N.sc" unicode="&#xf76e;" 
d="M592 0h-174l-174 276h-6v-276h-180v556h182l166 -271h6v271h180v-556z" />
    <glyph glyph-name="O.sc" unicode="&#xf76f;" 
d="M390 0h-130c-120 0 -190 45 -190 165v226c0 120 70 165 190 165h130c120 0 190 -45 190 -165v-226c0 -120 -70 -165 -190 -165zM293 168h64c26 0 43 13 43 38v147c0 25 -17 38 -43 38h-64c-26 0 -43 -13 -43 -38v-147c0 -25 17 -38 43 -38z" />
    <glyph glyph-name="P.sc" unicode="&#xf770;" 
d="M580 391v-91c0 -120 -70 -170 -190 -170h-110v-130h-180v556h290c120 0 190 -45 190 -165zM400 325v33c0 25 -12 33 -38 33h-82v-99h82c26 0 38 8 38 33z" />
    <glyph glyph-name="Q.sc" unicode="&#xf771;" 
d="M526 43l97 -114h-200l-55 71h-111c-120 0 -190 45 -190 165v226c0 120 70 165 190 165h130c120 0 190 -45 190 -165v-221c0 -58 -19 -99 -51 -127zM290 168h64c26 0 43 13 43 38v147c0 25 -17 38 -43 38h-64c-26 0 -43 -13 -43 -38v-147c0 -25 17 -38 43 -38z" />
    <glyph glyph-name="R.sc" unicode="&#xf772;" 
d="M565 0h-180v91l-56 79h-64v-170h-180v556h290c120 0 190 -45 190 -165v-61c0 -59 -25 -100 -67 -127l67 -92v-111zM265 318h82c26 0 38 8 38 33v14c0 25 -12 33 -38 33h-82v-80z" />
    <glyph glyph-name="S.sc" unicode="&#xf773;" 
d="M256 191v-20c0 -14 5 -23 41 -23h57c28 0 40 9 40 26v10c0 17 -12 29 -55 29h-68c-132 0 -185 43 -185 153v32c0 118 90 158 202 158h90c142 0 186 -57 186 -132v-11l-170 -44v19c0 14 -5 23 -41 23h-57c-23 0 -40 -6 -40 -22v-11c0 -17 12 -25 55 -25h58
c132 0 195 -55 195 -165v-30c0 -118 -90 -158 -202 -158h-90c-142 0 -186 57 -186 132v21z" />
    <glyph glyph-name="T.sc" unicode="&#xf774;" 
d="M592 391h-177v-391h-180v391h-177v165h534v-165z" />
    <glyph glyph-name="U.sc" unicode="&#xf775;" 
d="M580 556v-391c0 -120 -70 -165 -190 -165h-130c-120 0 -190 45 -190 165v391h180v-350c0 -25 17 -38 43 -38h64c26 0 43 13 43 38v350h180z" />
    <glyph glyph-name="V.sc" unicode="&#xf776;" 
d="M594 354l-166 -354h-206l-166 354v202h180v-173l87 -199h4l87 199v173h180v-202z" />
    <glyph glyph-name="W.sc" unicode="&#xf777;" 
d="M275 518h100l61 -232h7l16 101v169h170v-181l-105 -375h-150l-46 178h-6l-46 -178h-150l-105 375v181h170v-169l16 -101h7z" />
    <glyph glyph-name="X.sc" unicode="&#xf778;" 
d="M325 391l64 66v99h180v-150l-126 -112l145 -133v-161h-180v107l-83 81l-83 -81v-107h-180v161l145 133l-126 112v150h180v-99z" />
    <glyph glyph-name="Y.sc" unicode="&#xf779;" 
d="M580 348l-165 -158v-190h-180v190l-165 158v208h180v-150l75 -78l75 78v150h180v-208z" />
    <glyph glyph-name="Z.sc" unicode="&#xf77a;" 
d="M567 0h-485v152l251 237v2h-238v165h467v-150l-248 -236v-2h253v-168z" />
    <glyph glyph-name="A.scalt1" unicode="&#xe00c;" 
d="M428 556l206 -556h-199l-32 99h-156l-32 -99h-199l206 556h206zM322 373l-38 -134h82l-38 134h-6z" />
    <glyph glyph-name="K.scalt1" 
d="M622 0h-221l-121 197l-32 -33v-164h-180v556h180v-167h5l140 167h227l-216 -243z" />
    <glyph glyph-name="R.scalt1" 
d="M598 0h-196l-81 170h-56v-170h-180v556h290c120 0 190 -45 190 -165v-61c0 -67 -27 -112 -73 -131zM265 318h82c26 0 38 8 38 33v14c0 25 -12 33 -38 33h-82v-80z" />
    <glyph glyph-name="V.scalt1" 
d="M419 556h188l-182 -556h-200l-182 556h188l92 -339h4z" />
    <glyph glyph-name="W.scalt1" 
d="M280 518h90l55 -217h7l33 255h175l-113 -556h-155l-44 173h-6l-44 -173h-155l-113 556h175l33 -255h7z" />
    <glyph glyph-name="X.scalt1" 
d="M327 421l72 135h202l-161 -259l184 -297h-204l-93 166l-93 -166h-204l184 297l-161 259h202z" />
    <glyph glyph-name="Y.scalt1" 
d="M629 556l-214 -302v-254h-180v254l-214 302h212l92 -149l92 149h212z" />
    <glyph glyph-name="zero.sc" 
d="M380 0h-110c-120 0 -200 50 -200 170v216c0 120 80 170 200 170h110c120 0 200 -50 200 -170v-216c0 -120 -80 -170 -200 -170zM295 168h60c30 0 45 13 45 38v147c0 25 -15 38 -45 38h-60c-30 0 -45 -13 -45 -38v-147c0 -25 15 -38 45 -38z" />
    <glyph glyph-name="one.sc" 
d="M425 556v-388h161v-168h-522v168h181v223h-138v165h318z" />
    <glyph glyph-name="two.sc" 
d="M569 0h-489v127l270 187c24 17 39 30 39 45v8c0 18 -14 29 -40 29h-44c-28 0 -45 -13 -45 -38v-30l-180 45v13c0 122 67 170 190 170h103c120 0 196 -45 196 -146v-36c0 -57 -17 -98 -81 -139l-104 -67v-3h185v-165z" />
    <glyph glyph-name="three.sc" 
d="M82 162l175 46v-30c0 -15 10 -30 38 -30h70c18 0 27 9 27 22v24c0 13 -9 22 -27 22h-80v130h80c18 0 27 9 27 22v21c0 13 -9 22 -27 22h-70c-28 0 -38 -13 -38 -28v-23l-175 40v15c0 109 80 141 200 141h95c120 0 190 -32 190 -141v-20c0 -48 -17 -91 -62 -109
c50 -17 62 -57 62 -114v-24c0 -116 -70 -148 -190 -148h-95c-120 0 -200 32 -200 148v14z" />
    <glyph glyph-name="four.sc" 
d="M603 106h-84v-106h-170v106h-303v147l258 303h215v-300h84v-150zM349 256v105h-4l-88 -102v-3h92z" />
    <glyph glyph-name="five.sc" 
d="M557 212v-46c0 -120 -70 -166 -190 -166h-84c-136 0 -190 55 -190 130v20l170 35v-15c0 -11 5 -22 26 -22h64c24 0 34 10 34 23v38c0 13 -10 23 -34 23h-50c-24 0 -40 -9 -40 -26h-170v350h446v-145h-276v-65c22 13 61 21 92 21h21c140 0 181 -63 181 -155z" />
    <glyph glyph-name="six.sc" 
d="M569 204v-38c0 -120 -70 -166 -190 -166h-98c-120 0 -190 45 -190 166v214c0 118 83 176 196 176h92c120 0 190 -45 190 -120v-19l-170 -44v21c0 11 -9 17 -30 17h-63c-31 0 -45 -15 -45 -38v-37c23 12 61 18 92 18h40c140 0 176 -58 176 -150zM399 171v25
c0 13 -10 23 -34 23h-64c-24 0 -40 -9 -40 -26v-23c0 -11 5 -22 26 -22h78c24 0 34 10 34 23z" />
    <glyph glyph-name="seven.sc" 
d="M566 404l-201 -404h-206l206 391h-281v165h482v-152z" />
    <glyph glyph-name="eight.sc" 
d="M557 184v-38c0 -92 -70 -146 -190 -146h-85c-120 0 -190 54 -190 146v38c0 48 16 80 57 102c-41 21 -57 49 -57 94v38c0 83 61 138 190 138h85c129 0 190 -55 190 -138v-38c0 -45 -16 -73 -57 -94c41 -22 57 -54 57 -102zM387 370v19c0 13 -9 24 -27 24h-71
c-18 0 -27 -11 -27 -24v-19c0 -13 9 -24 27 -24h71c18 0 27 11 27 24zM387 169v24c0 13 -9 24 -27 24h-71c-18 0 -27 -11 -27 -24v-24c0 -13 9 -24 27 -24h71c18 0 27 11 27 24z" />
    <glyph glyph-name="nine.sc" 
d="M96 358v32c0 120 70 166 190 166h78c120 0 190 -45 190 -166v-225c0 -120 -70 -165 -190 -165h-78c-120 0 -190 45 -190 120v14l170 44v-13c0 -11 9 -17 30 -17h48c26 0 40 11 40 31v47c-23 -12 -46 -20 -77 -20h-45c-140 0 -166 60 -166 152zM266 388v-24
c0 -13 10 -23 34 -23h44c24 0 40 9 40 26v22c0 11 -5 22 -26 22h-58c-24 0 -34 -10 -34 -23z" />
    <glyph glyph-name="dieresis" unicode="&#xa8;" 
d="M295 628h-155v135h155v-135zM510 628h-155v135h155v-135z" />
    <glyph glyph-name="acute" unicode="&#xb4;" 
d="M464 763l-106 -135h-172l106 135h172z" />
    <glyph glyph-name="grave" unicode="`" 
d="M292 628l-106 135h172l106 -135h-172z" />
    <glyph glyph-name="circumflex" unicode="&#x2c6;" 
d="M137 623l117 145h142l117 -145h-159l-23 41h-12l-23 -41h-159z" />
    <glyph glyph-name="caron" unicode="&#x2c7;" 
d="M254 623l-117 145h159l23 -41h12l23 41h159l-117 -145h-142z" />
    <glyph glyph-name="tilde" unicode="&#x2dc;" 
d="M391 773h130c0 -83 -42 -155 -140 -155c-58 0 -74 28 -97 28c-19 0 -26 -8 -26 -28h-130c0 83 42 155 140 155c58 0 74 -28 97 -28c19 0 26 8 26 28z" />
    <glyph glyph-name="macron" unicode="&#xaf;" 
d="M489 632h-328v127h328v-127z" />
    <glyph glyph-name="cedilla" unicode="&#xb8;" 
d="M317 -20h140v-33c0 -72 -32 -117 -134 -117h-130l46 113h54c13 0 24 7 24 21v16z" />
    <glyph glyph-name="ring" unicode="&#x2da;" 
d="M294 696c0 -18 12 -30 30 -30c19 0 30 12 30 30c0 19 -11 30 -30 30c-18 0 -30 -11 -30 -30zM209 696c0 66 49 112 115 112s115 -46 115 -112s-49 -112 -115 -112s-115 46 -115 112z" />
    <glyph glyph-name="Adieresis" unicode="&#xc4;" 
d="M418 684l198 -501v-183h-180v156v3h-222v-3v-156h-180v183l198 501h186zM322 478l-55 -159h115l-54 159h-6zM295 738h-155v135h155v-135zM510 738h-155v135h155v-135z" />
    <glyph glyph-name="Aacute" unicode="&#xc1;" 
d="M418 684l198 -501v-183h-180v156v3h-222v-3v-156h-180v183l198 501h186zM322 478l-55 -159h115l-54 159h-6zM494 873l-106 -135h-172l106 135h172z" />
    <glyph glyph-name="Agrave" unicode="&#xc0;" 
d="M418 684l198 -501v-183h-180v156v3h-222v-3v-156h-180v183l198 501h186zM322 478l-55 -159h115l-54 159h-6zM262 738l-106 135h172l106 -135h-172z" />
    <glyph glyph-name="Acircumflex" unicode="&#xc2;" 
d="M418 684l198 -501v-183h-180v156v3h-222v-3v-156h-180v183l198 501h186zM322 478l-55 -159h115l-54 159h-6zM137 733l117 145h142l117 -145h-159l-23 41h-12l-23 -41h-159z" />
    <glyph glyph-name="Atilde" unicode="&#xc3;" 
d="M418 684l198 -501v-183h-180v156v3h-222v-3v-156h-180v183l198 501h186zM322 478l-55 -159h115l-54 159h-6zM391 883h130c0 -83 -42 -155 -140 -155c-58 0 -74 28 -97 28c-19 0 -26 -8 -26 -28h-130c0 83 42 155 140 155c58 0 74 -28 97 -28c19 0 26 8 26 28z" />
    <glyph glyph-name="Amacron" unicode="&#x100;" 
d="M418 684l198 -501v-183h-180v156v3h-222v-3v-156h-180v183l198 501h186zM322 478l-55 -159h115l-54 159h-6zM489 742h-328v127h328v-127z" />
    <glyph glyph-name="Edieresis" unicode="&#xcb;" 
d="M567 0h-490v684h490v-165h-310v-87h246v-162h-246v-102h310v-168zM295 738h-155v135h155v-135zM510 738h-155v135h155v-135z" />
    <glyph glyph-name="Eacute" unicode="&#xc9;" 
d="M567 0h-490v684h490v-165h-310v-87h246v-162h-246v-102h310v-168zM494 873l-106 -135h-172l106 135h172z" />
    <glyph glyph-name="Egrave" unicode="&#xc8;" 
d="M567 0h-490v684h490v-165h-310v-87h246v-162h-246v-102h310v-168zM262 738l-106 135h172l106 -135h-172z" />
    <glyph glyph-name="Ecircumflex" unicode="&#xca;" 
d="M567 0h-490v684h490v-165h-310v-87h246v-162h-246v-102h310v-168zM137 733l117 145h142l117 -145h-159l-23 41h-12l-23 -41h-159z" />
    <glyph glyph-name="Emacron" unicode="&#x112;" 
d="M567 0h-490v684h490v-165h-310v-87h246v-162h-246v-102h310v-168zM489 742h-328v127h328v-127z" />
    <glyph glyph-name="Idieresis" unicode="&#xcf;" 
d="M65 0v168h170v351h-160v165h500v-165h-160v-351h170v-168h-520zM295 738h-155v135h155v-135zM510 738h-155v135h155v-135z" />
    <glyph glyph-name="Iacute" unicode="&#xcd;" 
d="M65 0v168h170v351h-160v165h500v-165h-160v-351h170v-168h-520zM494 873l-106 -135h-172l106 135h172z" />
    <glyph glyph-name="Igrave" unicode="&#xcc;" 
d="M65 0v168h170v351h-160v165h500v-165h-160v-351h170v-168h-520zM262 738l-106 135h172l106 -135h-172z" />
    <glyph glyph-name="Icircumflex" unicode="&#xce;" 
d="M65 0v168h170v351h-160v165h500v-165h-160v-351h170v-168h-520zM137 733l117 145h142l117 -145h-159l-23 41h-12l-23 -41h-159z" />
    <glyph glyph-name="Itilde" unicode="&#x128;" 
d="M65 0v168h170v351h-160v165h500v-165h-160v-351h170v-168h-520zM391 883h130c0 -83 -42 -155 -140 -155c-58 0 -74 28 -97 28c-19 0 -26 -8 -26 -28h-130c0 83 42 155 140 155c58 0 74 -28 97 -28c19 0 26 8 26 28z" />
    <glyph glyph-name="Imacron" 
d="M65 0v168h170v351h-160v165h500v-165h-160v-351h170v-168h-520zM489 742h-328v127h328v-127z" />
    <glyph glyph-name="Odieresis" unicode="&#xd6;" 
d="M400 0h-150c-120 0 -200 50 -200 170v344c0 120 80 170 200 170h150c120 0 200 -50 200 -170v-344c0 -120 -80 -170 -200 -170zM275 168h100c30 0 45 13 45 38v275c0 25 -15 38 -45 38h-100c-30 0 -45 -13 -45 -38v-275c0 -25 15 -38 45 -38zM295 738h-155v135h155v-135z
M510 738h-155v135h155v-135z" />
    <glyph glyph-name="Oacute" unicode="&#xd3;" 
d="M400 0h-150c-120 0 -200 50 -200 170v344c0 120 80 170 200 170h150c120 0 200 -50 200 -170v-344c0 -120 -80 -170 -200 -170zM275 168h100c30 0 45 13 45 38v275c0 25 -15 38 -45 38h-100c-30 0 -45 -13 -45 -38v-275c0 -25 15 -38 45 -38zM494 873l-106 -135h-172
l106 135h172z" />
    <glyph glyph-name="Ograve" unicode="&#xd2;" 
d="M400 0h-150c-120 0 -200 50 -200 170v344c0 120 80 170 200 170h150c120 0 200 -50 200 -170v-344c0 -120 -80 -170 -200 -170zM275 168h100c30 0 45 13 45 38v275c0 25 -15 38 -45 38h-100c-30 0 -45 -13 -45 -38v-275c0 -25 15 -38 45 -38zM262 738l-106 135h172
l106 -135h-172z" />
    <glyph glyph-name="Ocircumflex" unicode="&#xd4;" 
d="M400 0h-150c-120 0 -200 50 -200 170v344c0 120 80 170 200 170h150c120 0 200 -50 200 -170v-344c0 -120 -80 -170 -200 -170zM275 168h100c30 0 45 13 45 38v275c0 25 -15 38 -45 38h-100c-30 0 -45 -13 -45 -38v-275c0 -25 15 -38 45 -38zM137 733l117 145h142
l117 -145h-159l-23 41h-12l-23 -41h-159z" />
    <glyph glyph-name="Otilde" unicode="&#xd5;" 
d="M400 0h-150c-120 0 -200 50 -200 170v344c0 120 80 170 200 170h150c120 0 200 -50 200 -170v-344c0 -120 -80 -170 -200 -170zM275 168h100c30 0 45 13 45 38v275c0 25 -15 38 -45 38h-100c-30 0 -45 -13 -45 -38v-275c0 -25 15 -38 45 -38zM391 883h130
c0 -83 -42 -155 -140 -155c-58 0 -74 28 -97 28c-19 0 -26 -8 -26 -28h-130c0 83 42 155 140 155c58 0 74 -28 97 -28c19 0 26 8 26 28z" />
    <glyph glyph-name="Omacron" unicode="&#x14c;" 
d="M400 0h-150c-120 0 -200 50 -200 170v344c0 120 80 170 200 170h150c120 0 200 -50 200 -170v-344c0 -120 -80 -170 -200 -170zM275 168h100c30 0 45 13 45 38v275c0 25 -15 38 -45 38h-100c-30 0 -45 -13 -45 -38v-275c0 -25 15 -38 45 -38zM489 742h-328v127h328v-127z
" />
    <glyph glyph-name="Udieresis" unicode="&#xdc;" 
d="M590 684v-514c0 -120 -80 -170 -200 -170h-130c-120 0 -200 50 -200 170v514h180v-478c0 -25 15 -38 45 -38h80c30 0 45 13 45 38v478h180zM295 738h-155v135h155v-135zM510 738h-155v135h155v-135z" />
    <glyph glyph-name="Uacute" unicode="&#xda;" 
d="M590 684v-514c0 -120 -80 -170 -200 -170h-130c-120 0 -200 50 -200 170v514h180v-478c0 -25 15 -38 45 -38h80c30 0 45 13 45 38v478h180zM494 873l-106 -135h-172l106 135h172z" />
    <glyph glyph-name="Ugrave" unicode="&#xd9;" 
d="M590 684v-514c0 -120 -80 -170 -200 -170h-130c-120 0 -200 50 -200 170v514h180v-478c0 -25 15 -38 45 -38h80c30 0 45 13 45 38v478h180zM262 738l-106 135h172l106 -135h-172z" />
    <glyph glyph-name="Ucircumflex" unicode="&#xdb;" 
d="M590 684v-514c0 -120 -80 -170 -200 -170h-130c-120 0 -200 50 -200 170v514h180v-478c0 -25 15 -38 45 -38h80c30 0 45 13 45 38v478h180zM137 733l117 145h142l117 -145h-159l-23 41h-12l-23 -41h-159z" />
    <glyph glyph-name="Utilde" unicode="&#x168;" 
d="M590 684v-514c0 -120 -80 -170 -200 -170h-130c-120 0 -200 50 -200 170v514h180v-478c0 -25 15 -38 45 -38h80c30 0 45 13 45 38v478h180zM391 883h130c0 -83 -42 -155 -140 -155c-58 0 -74 28 -97 28c-19 0 -26 -8 -26 -28h-130c0 83 42 155 140 155
c58 0 74 -28 97 -28c19 0 26 8 26 28z" />
    <glyph glyph-name="Umacron" unicode="&#x16a;" 
d="M590 684v-514c0 -120 -80 -170 -200 -170h-130c-120 0 -200 50 -200 170v514h180v-478c0 -25 15 -38 45 -38h80c30 0 45 13 45 38v478h180zM489 742h-328v127h328v-127z" />
    <glyph glyph-name="Ydieresis" unicode="&#x178;" 
d="M611 482l-195 -193v-289h-180v289l-197 193v202h180v-136l106 -115l106 115v136h180v-202zM295 738h-155v135h155v-135zM510 738h-155v135h155v-135z" />
    <glyph glyph-name="Yacute" unicode="&#xdd;" 
d="M610 482l-195 -193v-289h-180v289l-197 193v202h180v-136l106 -115l106 115v136h180v-202zM494 873l-106 -135h-172l106 135h172z" />
    <glyph glyph-name="Scaron" unicode="&#x160;" 
d="M245 233v-27c0 -25 15 -38 45 -38h70c30 0 45 13 45 38v22c0 25 -15 38 -45 38h-105c-120 0 -190 56 -190 176v67c0 120 90 175 210 175h110c120 0 200 -50 200 -170v-13l-180 -45v25c0 25 -15 38 -45 38h-70c-30 0 -45 -13 -45 -38v-15c0 -25 15 -38 45 -38h104
c120 0 191 -54 191 -174v-79c0 -120 -90 -175 -210 -175h-110c-120 0 -200 50 -200 170v18zM254 733l-117 145h159l23 -41h12l23 41h159l-117 -145h-142z" />
    <glyph glyph-name="Zcaron" unicode="&#x17d;" 
d="M592 0h-535v158l304 361h-291v165h517v-157l-305 -359h310v-168zM254 733l-117 145h159l23 -41h12l23 41h159l-117 -145h-142z" />
    <glyph glyph-name="Ntilde" unicode="&#xd1;" 
d="M600 0h-175l-187 336h-8v-336h-180v684h173l189 -351h8v351h180v-684zM391 883h130c0 -83 -42 -155 -140 -155c-58 0 -74 28 -97 28c-19 0 -26 -8 -26 -28h-130c0 83 42 155 140 155c58 0 74 -28 97 -28c19 0 26 8 26 28z" />
    <glyph glyph-name="Ccedilla" unicode="&#xc7;" 
d="M414 -20h-140v-16c0 -14 -11 -21 -24 -21h-54l-46 -113h130c102 0 134 45 134 117v33zM590 243v-73c0 -120 -80 -170 -200 -170h-130c-120 0 -200 50 -200 170v344c0 120 80 170 200 170h130c120 0 200 -50 200 -170v-63l-180 -45v75c0 25 -15 38 -45 38h-80
c-30 0 -45 -13 -45 -38v-275c0 -25 15 -38 45 -38h80c30 0 45 13 45 38v87z" />
    <glyph glyph-name="Aring" unicode="&#xc5;" 
d="M418 684l198 -501v-183h-180v156v3h-222v-3v-156h-180v183l198 501h186zM322 478l-55 -159h115l-54 159h-6zM294 816c0 -18 12 -30 30 -30c19 0 30 12 30 30c0 19 -11 30 -30 30c-18 0 -30 -11 -30 -30zM209 816c0 66 49 112 115 112s115 -46 115 -112
s-49 -112 -115 -112s-115 46 -115 112z" />
    <glyph glyph-name="Adieresis.alt1" 
d="M419 684l215 -684h-202l-26 105h-162l-26 -105h-202l215 684h188zM322 448l-40 -183h86l-40 183h-6zM295 738h-155v135h155v-135zM510 738h-155v135h155v-135z" />
    <glyph glyph-name="Aacute.alt1" 
d="M419 684l215 -684h-202l-26 105h-162l-26 -105h-202l215 684h188zM322 448l-40 -183h86l-40 183h-6zM494 873l-106 -135h-172l106 135h172z" />
    <glyph glyph-name="Agrave.alt1" 
d="M419 684l215 -684h-202l-26 105h-162l-26 -105h-202l215 684h188zM322 448l-40 -183h86l-40 183h-6zM262 738l-106 135h172l106 -135h-172z" />
    <glyph glyph-name="Acircumflex.alt1" 
d="M419 684l215 -684h-202l-26 105h-162l-26 -105h-202l215 684h188zM322 448l-40 -183h86l-40 183h-6zM137 733l117 145h142l117 -145h-159l-23 41h-12l-23 -41h-159z" />
    <glyph glyph-name="Atilde.alt1" 
d="M419 684l215 -684h-202l-26 105h-162l-26 -105h-202l215 684h188zM322 448l-40 -183h86l-40 183h-6zM391 883h130c0 -83 -42 -155 -140 -155c-58 0 -74 28 -97 28c-19 0 -26 -8 -26 -28h-130c0 83 42 155 140 155c58 0 74 -28 97 -28c19 0 26 8 26 28z" />
    <glyph glyph-name="Amacron.alt1" 
d="M419 684l215 -684h-202l-26 105h-162l-26 -105h-202l215 684h188zM322 448l-40 -183h86l-40 183h-6zM489 742h-328v127h328v-127z" />
    <glyph glyph-name="Ydieresis.alt1" 
d="M295 738h-155v135h155v-135zM510 738h-155v135h155v-135zM634 684l-220 -385v-299h-180v299l-218 385h207l102 -212l102 212h207z" />
    <glyph glyph-name="Yacute.alt1" 
d="M494 873l-106 -135h-172l106 135h172zM634 684l-220 -385v-299h-180v299l-218 385h207l102 -212l102 212h207z" />
    <glyph glyph-name="Aring.alt1" 
d="M419 684l215 -684h-202l-26 105h-162l-26 -105h-202l215 684h188zM322 448l-40 -183h86l-40 183h-6zM294 816c0 -18 12 -30 30 -30c19 0 30 12 30 30c0 19 -11 30 -30 30c-18 0 -30 -11 -30 -30zM209 816c0 66 49 112 115 112s115 -46 115 -112s-49 -112 -115 -112
s-115 46 -115 112z" />
    <glyph glyph-name="Adieresis.sc" unicode="&#xf7e4;" 
d="M608 154l-203 402h-159l-204 -402v-154h175v92v11h216v-11v-92h175v154zM270 253l54 115h2l54 -115h-110zM295 608h-155v135h155v-135zM510 608h-155v135h155v-135z" />
    <glyph glyph-name="Aacute.sc" unicode="&#xf7e1;" 
d="M608 154l-203 402h-159l-204 -402v-154h175v92v11h216v-11v-92h175v154zM270 253l54 115h2l54 -115h-110zM494 743l-106 -135h-172l106 135h172z" />
    <glyph glyph-name="Agrave.sc" unicode="&#xf7e0;" 
d="M405 556l203 -402v-154h-175v92v11h-216v-11v-92h-175v154l204 402h159zM324 368l-54 -115h110l-54 115h-2zM262 608l-106 135h172l106 -135h-172z" />
    <glyph glyph-name="Acircumflex.sc" unicode="&#xf7e2;" 
d="M405 556l203 -402v-154h-175v92v11h-216v-11v-92h-175v154l204 402h159zM324 368l-54 -115h110l-54 115h-2zM137 603l117 145h142l117 -145h-159l-23 41h-12l-23 -41h-159z" />
    <glyph glyph-name="Atilde.sc" unicode="&#xf7e3;" 
d="M608 154l-203 402h-159l-204 -402v-154h175v92v11h216v-11v-92h175v154zM270 253l54 115h2l54 -115h-110zM391 753h130c0 -83 -42 -155 -140 -155c-58 0 -74 28 -97 28c-19 0 -26 -8 -26 -28h-130c0 83 42 155 140 155c58 0 74 -28 97 -28c19 0 26 8 26 28z" />
    <glyph glyph-name="Amacron.sc" unicode="&#xf66e;" 
d="M608 154l-203 402h-159l-204 -402v-154h175v92v11h216v-11v-92h175v154zM270 253l54 115h2l54 -115h-110zM489 612h-328v127h328v-127z" />
    <glyph glyph-name="Edieresis.sc" unicode="&#xf7eb;" 
d="M555 0h-460v556h460v-150h-285v-53h221v-140h-221v-58h285v-155zM295 608h-155v135h155v-135zM510 608h-155v135h155v-135z" />
    <glyph glyph-name="Eacute.sc" unicode="&#xf7e9;" 
d="M555 0h-460v556h460v-150h-285v-53h221v-140h-221v-58h285v-155zM494 743l-106 -135h-172l106 135h172z" />
    <glyph glyph-name="Egrave.sc" unicode="&#xf7e8;" 
d="M555 0h-460v556h460v-150h-285v-53h221v-140h-221v-58h285v-155zM262 608l-106 135h172l106 -135h-172z" />
    <glyph glyph-name="Ecircumflex.sc" unicode="&#xf7ea;" 
d="M555 0h-460v556h460v-150h-285v-53h221v-140h-221v-58h285v-155zM137 603l117 145h142l117 -145h-159l-23 41h-12l-23 -41h-159z" />
    <glyph glyph-name="Emacron.sc" unicode="&#xf67a;" 
d="M555 0h-460v556h460v-150h-285v-53h221v-140h-221v-58h285v-155zM489 612h-328v127h328v-127z" />
    <glyph glyph-name="Idieresis.sc" unicode="&#xf7ef;" 
d="M93 0v168h141v223h-132v165h444v-165h-132v-223h142v-168h-463zM295 608h-155v135h155v-135zM510 608h-155v135h155v-135z" />
    <glyph glyph-name="Iacute.sc" unicode="&#xf7ed;" 
d="M93 0v168h141v223h-132v165h444v-165h-132v-223h142v-168h-463zM494 743l-106 -135h-172l106 135h172z" />
    <glyph glyph-name="Igrave.sc" unicode="&#xf7ec;" 
d="M93 0v168h141v223h-132v165h444v-165h-132v-223h142v-168h-463zM262 608l-106 135h172l106 -135h-172z" />
    <glyph glyph-name="Icircumflex.sc" unicode="&#xf7ee;" 
d="M93 0v168h141v223h-132v165h444v-165h-132v-223h142v-168h-463zM137 603l117 145h142l117 -145h-159l-23 41h-12l-23 -41h-159z" />
    <glyph glyph-name="Itilde.sc" 
d="M93 0v168h141v223h-132v165h444v-165h-132v-223h142v-168h-463zM391 753h130c0 -83 -42 -155 -140 -155c-58 0 -74 28 -97 28c-19 0 -26 -8 -26 -28h-130c0 83 42 155 140 155c58 0 74 -28 97 -28c19 0 26 8 26 28z" />
    <glyph glyph-name="Imacron.sc" unicode="&#xf685;" 
d="M93 0v168h141v223h-132v165h444v-165h-132v-223h142v-168h-463zM489 612h-328v127h328v-127z" />
    <glyph glyph-name="Odieresis.sc" unicode="&#xf7f6;" 
d="M390 0h-130c-120 0 -190 45 -190 165v226c0 120 70 165 190 165h130c120 0 190 -45 190 -165v-226c0 -120 -70 -165 -190 -165zM293 168h64c26 0 43 13 43 38v147c0 25 -17 38 -43 38h-64c-26 0 -43 -13 -43 -38v-147c0 -25 17 -38 43 -38zM295 608h-155v135h155v-135z
M510 608h-155v135h155v-135z" />
    <glyph glyph-name="Oacute.sc" unicode="&#xf7f3;" 
d="M390 0h-130c-120 0 -190 45 -190 165v226c0 120 70 165 190 165h130c120 0 190 -45 190 -165v-226c0 -120 -70 -165 -190 -165zM293 168h64c26 0 43 13 43 38v147c0 25 -17 38 -43 38h-64c-26 0 -43 -13 -43 -38v-147c0 -25 17 -38 43 -38zM494 743l-106 -135h-172
l106 135h172z" />
    <glyph glyph-name="Ograve.sc" unicode="&#xf7f2;" 
d="M390 0h-130c-120 0 -190 45 -190 165v226c0 120 70 165 190 165h130c120 0 190 -45 190 -165v-226c0 -120 -70 -165 -190 -165zM293 168h64c26 0 43 13 43 38v147c0 25 -17 38 -43 38h-64c-26 0 -43 -13 -43 -38v-147c0 -25 17 -38 43 -38zM262 608l-106 135h172
l106 -135h-172z" />
    <glyph glyph-name="Ocircumflex.sc" unicode="&#xf7f4;" 
d="M390 0h-130c-120 0 -190 45 -190 165v226c0 120 70 165 190 165h130c120 0 190 -45 190 -165v-226c0 -120 -70 -165 -190 -165zM293 168h64c26 0 43 13 43 38v147c0 25 -17 38 -43 38h-64c-26 0 -43 -13 -43 -38v-147c0 -25 17 -38 43 -38zM137 603l117 145h142l117 -145
h-159l-23 41h-12l-23 -41h-159z" />
    <glyph glyph-name="Otilde.sc" unicode="&#xf7f5;" 
d="M390 0h-130c-120 0 -190 45 -190 165v226c0 120 70 165 190 165h130c120 0 190 -45 190 -165v-226c0 -120 -70 -165 -190 -165zM293 168h64c26 0 43 13 43 38v147c0 25 -17 38 -43 38h-64c-26 0 -43 -13 -43 -38v-147c0 -25 17 -38 43 -38zM391 753h130
c0 -83 -42 -155 -140 -155c-58 0 -74 28 -97 28c-19 0 -26 -8 -26 -28h-130c0 83 42 155 140 155c58 0 74 -28 97 -28c19 0 26 8 26 28z" />
    <glyph glyph-name="Omacron.sc" unicode="&#xf693;" 
d="M390 0h-130c-120 0 -190 45 -190 165v226c0 120 70 165 190 165h130c120 0 190 -45 190 -165v-226c0 -120 -70 -165 -190 -165zM293 168h64c26 0 43 13 43 38v147c0 25 -17 38 -43 38h-64c-26 0 -43 -13 -43 -38v-147c0 -25 17 -38 43 -38zM489 612h-328v127h328v-127z
" />
    <glyph glyph-name="Udieresis.sc" unicode="&#xf7fc;" 
d="M580 556v-391c0 -120 -70 -165 -190 -165h-130c-120 0 -190 45 -190 165v391h180v-350c0 -25 17 -38 43 -38h64c26 0 43 13 43 38v350h180zM295 608h-155v135h155v-135zM510 608h-155v135h155v-135z" />
    <glyph glyph-name="Uacute.sc" unicode="&#xf7fa;" 
d="M580 556v-391c0 -120 -70 -165 -190 -165h-130c-120 0 -190 45 -190 165v391h180v-350c0 -25 17 -38 43 -38h64c26 0 43 13 43 38v350h180zM494 743l-106 -135h-172l106 135h172z" />
    <glyph glyph-name="Ugrave.sc" unicode="&#xf7f9;" 
d="M580 556v-391c0 -120 -70 -165 -190 -165h-130c-120 0 -190 45 -190 165v391h180v-350c0 -25 17 -38 43 -38h64c26 0 43 13 43 38v350h180zM262 608l-106 135h172l106 -135h-172z" />
    <glyph glyph-name="Ucircumflex.sc" unicode="&#xf7fb;" 
d="M580 556v-391c0 -120 -70 -165 -190 -165h-130c-120 0 -190 45 -190 165v391h180v-350c0 -25 17 -38 43 -38h64c26 0 43 13 43 38v350h180zM137 603l117 145h142l117 -145h-159l-23 41h-12l-23 -41h-159z" />
    <glyph glyph-name="Utilde.sc" 
d="M580 556v-391c0 -120 -70 -165 -190 -165h-130c-120 0 -190 45 -190 165v391h180v-350c0 -25 17 -38 43 -38h64c26 0 43 13 43 38v350h180zM391 753h130c0 -83 -42 -155 -140 -155c-58 0 -74 28 -97 28c-19 0 -26 -8 -26 -28h-130c0 83 42 155 140 155
c58 0 74 -28 97 -28c19 0 26 8 26 28z" />
    <glyph glyph-name="Umacron.sc" unicode="&#xf6a1;" 
d="M580 556v-391c0 -120 -70 -165 -190 -165h-130c-120 0 -190 45 -190 165v391h180v-350c0 -25 17 -38 43 -38h64c26 0 43 13 43 38v350h180zM489 612h-328v127h328v-127z" />
    <glyph glyph-name="Ydieresis.sc" unicode="&#xf7ff;" 
d="M580 348l-165 -158v-190h-180v190l-165 158v208h180v-150l75 -78l75 78v150h180v-208zM295 608h-155v135h155v-135zM510 608h-155v135h155v-135z" />
    <glyph glyph-name="Yacute.sc" unicode="&#xf7fd;" 
d="M580 348l-165 -158v-190h-180v190l-165 158v208h180v-150l75 -78l75 78v150h180v-208zM494 743l-106 -135h-172l106 135h172z" />
    <glyph glyph-name="Scaron.sc" unicode="&#xf6fd;" 
d="M256 191v-20c0 -14 5 -23 41 -23h57c28 0 40 9 40 26v10c0 17 -12 29 -55 29h-68c-132 0 -185 43 -185 153v32c0 118 90 158 202 158h90c142 0 186 -57 186 -132v-11l-170 -44v19c0 14 -5 23 -41 23h-57c-23 0 -40 -6 -40 -22v-11c0 -17 12 -25 55 -25h58
c132 0 195 -55 195 -165v-30c0 -118 -90 -158 -202 -158h-90c-142 0 -186 57 -186 132v21zM254 603l-117 145h159l23 -41h12l23 41h159l-117 -145h-142z" />
    <glyph glyph-name="Zcaron.sc" unicode="&#xf6ff;" 
d="M567 0h-485v152l251 237v2h-238v165h467v-150l-248 -236v-2h253v-168zM254 603l-117 145h159l23 -41h12l23 41h159l-117 -145h-142z" />
    <glyph glyph-name="Ntilde.sc" unicode="&#xf7f1;" 
d="M592 0h-174l-174 276h-6v-276h-180v556h182l166 -271h6v271h180v-556zM391 753h130c0 -83 -42 -155 -140 -155c-58 0 -74 28 -97 28c-19 0 -26 -8 -26 -28h-130c0 83 42 155 140 155c58 0 74 -28 97 -28c19 0 26 8 26 28z" />
    <glyph glyph-name="Ccedilla.sc" unicode="&#xf7e7;" 
d="M414 -20h-140v-16c0 -14 -11 -21 -24 -21h-54l-46 -113h130c102 0 134 45 134 117v33zM580 198v-33c0 -120 -70 -165 -190 -165h-130c-120 0 -190 45 -190 165v226c0 120 70 165 190 165h130c120 0 190 -45 190 -165v-23l-180 -50v35c0 25 -17 38 -43 38h-64
c-26 0 -43 -13 -43 -38v-147c0 -25 17 -38 43 -38h64c26 0 43 13 43 38v47z" />
    <glyph glyph-name="Aring.sc" unicode="&#xf7e5;" 
d="M608 154l-203 402h-159l-204 -402v-154h175v92v11h216v-11v-92h175v154zM270 253l54 115h2l54 -115h-110zM294 696c0 -18 12 -30 30 -30c19 0 30 12 30 30c0 19 -11 30 -30 30c-18 0 -30 -11 -30 -30zM209 696c0 66 49 112 115 112s115 -46 115 -112s-49 -112 -115 -112
s-115 46 -115 112z" />
    <glyph glyph-name="Adieresis.scalt1" 
d="M428 556l206 -556h-199l-32 99h-156l-32 -99h-199l206 556h206zM322 373l-38 -134h82l-38 134h-6zM295 608h-155v135h155v-135zM510 608h-155v135h155v-135z" />
    <glyph glyph-name="Aacute.scalt1" 
d="M428 556l206 -556h-199l-32 99h-156l-32 -99h-199l206 556h206zM322 373l-38 -134h82l-38 134h-6zM494 743l-106 -135h-172l106 135h172z" />
    <glyph glyph-name="Agrave.scalt1" 
d="M428 556l206 -556h-199l-32 99h-156l-32 -99h-199l206 556h206zM322 373l-38 -134h82l-38 134h-6zM262 608l-106 135h172l106 -135h-172z" />
    <glyph glyph-name="Acircumflex.scalt1" 
d="M428 556l206 -556h-199l-32 99h-156l-32 -99h-199l206 556h206zM322 373l-38 -134h82l-38 134h-6zM137 603l117 145h142l117 -145h-159l-23 41h-12l-23 -41h-159z" />
    <glyph glyph-name="Atilde.scalt1" 
d="M428 556l206 -556h-199l-32 99h-156l-32 -99h-199l206 556h206zM322 373l-38 -134h82l-38 134h-6zM391 753h130c0 -83 -42 -155 -140 -155c-58 0 -74 28 -97 28c-19 0 -26 -8 -26 -28h-130c0 83 42 155 140 155c58 0 74 -28 97 -28c19 0 26 8 26 28z" />
    <glyph glyph-name="Amacron.scalt1" 
d="M428 556l206 -556h-199l-32 99h-156l-32 -99h-199l206 556h206zM322 373l-38 -134h82l-38 134h-6zM489 612h-328v127h328v-127z" />
    <glyph glyph-name="Ydieresis.scalt1" 
d="M629 556l-214 -302v-254h-180v254l-214 302h212l92 -149l92 149h212zM295 608h-155v135h155v-135zM510 608h-155v135h155v-135z" />
    <glyph glyph-name="Yacute.scalt1" 
d="M629 556l-214 -302v-254h-180v254l-214 302h212l92 -149l92 149h212zM494 743l-106 -135h-172l106 135h172z" />
    <glyph glyph-name="Aring.scalt1" 
d="M428 556l206 -556h-199l-32 99h-156l-32 -99h-199l206 556h206zM322 373l-38 -134h82l-38 134h-6zM294 696c0 -18 12 -30 30 -30c19 0 30 12 30 30c0 19 -11 30 -30 30c-18 0 -30 -11 -30 -30zM209 696c0 66 49 112 115 112s115 -46 115 -112s-49 -112 -115 -112
s-115 46 -115 112z" />
    <glyph glyph-name="adieresis" unicode="&#xe4;" 
d="M562 0h-170v36h-3c-28 -23 -67 -36 -127 -36h-29c-97 0 -166 44 -166 161v38c0 115 70 160 166 160h19c60 0 109 -12 137 -33h3v40c0 32 -18 45 -50 45h-49c-23 0 -31 -11 -31 -24v-13l-170 40v13c0 76 71 129 187 129h78c120 0 205 -65 205 -185v-371zM322 219h-45
c-22 0 -40 -10 -40 -31v-9c0 -21 18 -31 40 -31h45c29 0 70 7 70 31v9c0 27 -44 31 -70 31zM295 608h-155v135h155v-135zM510 608h-155v135h155v-135z" />
    <glyph glyph-name="aacute" unicode="&#xe1;" 
d="M562 0h-170v36h-3c-28 -23 -67 -36 -127 -36h-29c-97 0 -166 44 -166 161v38c0 115 70 160 166 160h19c60 0 109 -12 137 -33h3v40c0 32 -18 45 -50 45h-49c-23 0 -31 -11 -31 -24v-13l-170 40v13c0 76 71 129 187 129h78c120 0 205 -65 205 -185v-371zM322 219h-45
c-22 0 -40 -10 -40 -31v-9c0 -21 18 -31 40 -31h45c29 0 70 7 70 31v9c0 27 -44 31 -70 31zM494 743l-106 -135h-172l106 135h172z" />
    <glyph glyph-name="agrave" unicode="&#xe0;" 
d="M562 0h-170v36h-3c-28 -23 -67 -36 -127 -36h-29c-97 0 -166 44 -166 161v38c0 115 70 160 166 160h19c60 0 109 -12 137 -33h3v40c0 32 -18 45 -50 45h-49c-23 0 -31 -11 -31 -24v-13l-170 40v13c0 76 71 129 187 129h78c120 0 205 -65 205 -185v-371zM322 219h-45
c-22 0 -40 -10 -40 -31v-9c0 -21 18 -31 40 -31h45c29 0 70 7 70 31v9c0 27 -44 31 -70 31zM262 608l-106 135h172l106 -135h-172z" />
    <glyph glyph-name="acircumflex" unicode="&#xe2;" 
d="M562 0h-170v36h-3c-28 -23 -67 -36 -127 -36h-29c-97 0 -166 44 -166 161v38c0 115 70 160 166 160h19c60 0 109 -12 137 -33h3v40c0 32 -18 45 -50 45h-49c-23 0 -31 -11 -31 -24v-13l-170 40v13c0 76 71 129 187 129h78c120 0 205 -65 205 -185v-371zM322 219h-45
c-22 0 -40 -10 -40 -31v-9c0 -21 18 -31 40 -31h45c29 0 70 7 70 31v9c0 27 -44 31 -70 31zM137 603l117 145h142l117 -145h-159l-23 41h-12l-23 -41h-159z" />
    <glyph glyph-name="atilde" unicode="&#xe3;" 
d="M562 0h-170v36h-3c-28 -23 -67 -36 -127 -36h-29c-97 0 -166 44 -166 161v38c0 115 70 160 166 160h19c60 0 109 -12 137 -33h3v40c0 32 -18 45 -50 45h-49c-23 0 -31 -11 -31 -24v-13l-170 40v13c0 76 71 129 187 129h78c120 0 205 -65 205 -185v-371zM322 219h-45
c-22 0 -40 -10 -40 -31v-9c0 -21 18 -31 40 -31h45c29 0 70 7 70 31v9c0 27 -44 31 -70 31zM391 753h130c0 -83 -42 -155 -140 -155c-58 0 -74 28 -97 28c-19 0 -26 -8 -26 -28h-130c0 83 42 155 140 155c58 0 74 -28 97 -28c19 0 26 8 26 28z" />
    <glyph glyph-name="amacron" unicode="&#x101;" 
d="M562 0h-170v36h-3c-28 -23 -67 -36 -127 -36h-29c-97 0 -166 44 -166 161v38c0 115 70 160 166 160h19c60 0 109 -12 137 -33h3v40c0 32 -18 45 -50 45h-49c-23 0 -31 -11 -31 -24v-13l-170 40v13c0 76 71 129 187 129h78c120 0 205 -65 205 -185v-371zM322 219h-45
c-22 0 -40 -10 -40 -31v-9c0 -21 18 -31 40 -31h45c29 0 70 7 70 31v9c0 27 -44 31 -70 31zM489 612h-328v127h328v-127z" />
    <glyph glyph-name="edieresis" unicode="&#xeb;" 
d="M567 373v-157h-319v-28c0 -25 15 -40 45 -40h55c30 0 49 8 49 28v22l170 -30v-20c0 -116 -91 -148 -210 -148h-79c-120 0 -200 50 -200 170v216c0 120 80 170 200 170h89c120 0 200 -63 200 -183zM248 372v-21h149v19c0 22 -5 41 -45 41h-59c-39 0 -45 -17 -45 -39z
M295 608h-155v135h155v-135zM510 608h-155v135h155v-135z" />
    <glyph glyph-name="eacute" unicode="&#xe9;" 
d="M567 373v-157h-319v-28c0 -25 15 -40 45 -40h55c30 0 49 8 49 28v22l170 -30v-20c0 -116 -91 -148 -210 -148h-79c-120 0 -200 50 -200 170v216c0 120 80 170 200 170h89c120 0 200 -63 200 -183zM248 372v-21h149v19c0 22 -5 41 -45 41h-59c-39 0 -45 -17 -45 -39z
M494 743l-106 -135h-172l106 135h172z" />
    <glyph glyph-name="egrave" unicode="&#xe8;" 
d="M567 373v-157h-319v-28c0 -25 15 -40 45 -40h55c30 0 49 8 49 28v22l170 -30v-20c0 -116 -91 -148 -210 -148h-79c-120 0 -200 50 -200 170v216c0 120 80 170 200 170h89c120 0 200 -63 200 -183zM248 372v-21h149v19c0 22 -5 41 -45 41h-59c-39 0 -45 -17 -45 -39z
M262 608l-106 135h172l106 -135h-172z" />
    <glyph glyph-name="ecircumflex" unicode="&#xea;" 
d="M567 373v-157h-319v-28c0 -25 15 -40 45 -40h55c30 0 49 8 49 28v22l170 -30v-20c0 -116 -91 -148 -210 -148h-79c-120 0 -200 50 -200 170v216c0 120 80 170 200 170h89c120 0 200 -63 200 -183zM248 372v-21h149v19c0 22 -5 41 -45 41h-59c-39 0 -45 -17 -45 -39z
M137 603l117 145h142l117 -145h-159l-23 41h-12l-23 -41h-159z" />
    <glyph glyph-name="emacron" unicode="&#x113;" 
d="M567 373v-157h-319v-28c0 -25 15 -40 45 -40h55c30 0 49 8 49 28v22l170 -30v-20c0 -116 -91 -148 -210 -148h-79c-120 0 -200 50 -200 170v216c0 120 80 170 200 170h89c120 0 200 -63 200 -183zM248 372v-21h149v19c0 22 -5 41 -45 41h-59c-39 0 -45 -17 -45 -39z
M489 612h-328v127h328v-127z" />
    <glyph glyph-name="idieresis" unicode="&#xef;" 
d="M54 0v168h196v223h-177v165h357v-388h166v-168h-542zM295 608h-155v135h155v-135zM510 608h-155v135h155v-135z" />
    <glyph glyph-name="iacute" unicode="&#xed;" 
d="M54 0v168h196v223h-177v165h357v-388h166v-168h-542zM494 743l-106 -135h-172l106 135h172z" />
    <glyph glyph-name="igrave" unicode="&#xec;" 
d="M54 0v168h196v223h-177v165h357v-388h166v-168h-542zM262 608l-106 135h172l106 -135h-172z" />
    <glyph glyph-name="icircumflex" unicode="&#xee;" 
d="M54 0v168h196v223h-177v165h357v-388h166v-168h-542zM137 603l117 145h142l117 -145h-159l-23 41h-12l-23 -41h-159z" />
    <glyph glyph-name="itilde" unicode="&#x129;" 
d="M54 0v168h196v223h-177v165h357v-388h166v-168h-542zM391 753h130c0 -83 -42 -155 -140 -155c-58 0 -74 28 -97 28c-19 0 -26 -8 -26 -28h-130c0 83 42 155 140 155c58 0 74 -28 97 -28c19 0 26 8 26 28z" />
    <glyph glyph-name="imacron" unicode="&#x12b;" 
d="M54 0v168h196v223h-177v165h357v-388h166v-168h-542zM489 612h-328v127h328v-127z" />
    <glyph glyph-name="odieresis" unicode="&#xf6;" 
d="M380 0h-110c-120 0 -200 50 -200 170v216c0 120 80 170 200 170h110c120 0 200 -50 200 -170v-216c0 -120 -80 -170 -200 -170zM295 168h60c30 0 45 13 45 38v147c0 25 -15 38 -45 38h-60c-30 0 -45 -13 -45 -38v-147c0 -25 15 -38 45 -38zM295 608h-155v135h155v-135z
M510 608h-155v135h155v-135z" />
    <glyph glyph-name="oacute" unicode="&#xf3;" 
d="M380 0h-110c-120 0 -200 50 -200 170v216c0 120 80 170 200 170h110c120 0 200 -50 200 -170v-216c0 -120 -80 -170 -200 -170zM295 168h60c30 0 45 13 45 38v147c0 25 -15 38 -45 38h-60c-30 0 -45 -13 -45 -38v-147c0 -25 15 -38 45 -38zM494 743l-106 -135h-172
l106 135h172z" />
    <glyph glyph-name="ograve" unicode="&#xf2;" 
d="M380 0h-110c-120 0 -200 50 -200 170v216c0 120 80 170 200 170h110c120 0 200 -50 200 -170v-216c0 -120 -80 -170 -200 -170zM295 168h60c30 0 45 13 45 38v147c0 25 -15 38 -45 38h-60c-30 0 -45 -13 -45 -38v-147c0 -25 15 -38 45 -38zM262 608l-106 135h172
l106 -135h-172z" />
    <glyph glyph-name="ocircumflex" unicode="&#xf4;" 
d="M380 0h-110c-120 0 -200 50 -200 170v216c0 120 80 170 200 170h110c120 0 200 -50 200 -170v-216c0 -120 -80 -170 -200 -170zM295 168h60c30 0 45 13 45 38v147c0 25 -15 38 -45 38h-60c-30 0 -45 -13 -45 -38v-147c0 -25 15 -38 45 -38zM137 603l117 145h142l117 -145
h-159l-23 41h-12l-23 -41h-159z" />
    <glyph glyph-name="otilde" unicode="&#xf5;" 
d="M380 0h-110c-120 0 -200 50 -200 170v216c0 120 80 170 200 170h110c120 0 200 -50 200 -170v-216c0 -120 -80 -170 -200 -170zM295 168h60c30 0 45 13 45 38v147c0 25 -15 38 -45 38h-60c-30 0 -45 -13 -45 -38v-147c0 -25 15 -38 45 -38zM391 753h130
c0 -83 -42 -155 -140 -155c-58 0 -74 28 -97 28c-19 0 -26 -8 -26 -28h-130c0 83 42 155 140 155c58 0 74 -28 97 -28c19 0 26 8 26 28z" />
    <glyph glyph-name="omacron" unicode="&#x14d;" 
d="M380 0h-110c-120 0 -200 50 -200 170v216c0 120 80 170 200 170h110c120 0 200 -50 200 -170v-216c0 -120 -80 -170 -200 -170zM295 168h60c30 0 45 13 45 38v147c0 25 -15 38 -45 38h-60c-30 0 -45 -13 -45 -38v-147c0 -25 15 -38 45 -38zM489 612h-328v127h328v-127z
" />
    <glyph glyph-name="udieresis" unicode="&#xfc;" 
d="M65 556h180v-325c0 -43 20 -63 55 -63h26c41 0 79 26 79 78v310h180v-556h-180v46h-3c-23 -26 -67 -46 -127 -46h-46c-100 0 -164 55 -164 175v381zM295 608h-155v135h155v-135zM510 608h-155v135h155v-135z" />
    <glyph glyph-name="uacute" unicode="&#xfa;" 
d="M65 556h180v-325c0 -43 20 -63 55 -63h26c41 0 79 26 79 78v310h180v-556h-180v46h-3c-23 -26 -67 -46 -127 -46h-46c-100 0 -164 55 -164 175v381zM494 743l-106 -135h-172l106 135h172z" />
    <glyph glyph-name="ugrave" unicode="&#xf9;" 
d="M65 556h180v-325c0 -43 20 -63 55 -63h26c41 0 79 26 79 78v310h180v-556h-180v46h-3c-23 -26 -67 -46 -127 -46h-46c-100 0 -164 55 -164 175v381zM262 608l-106 135h172l106 -135h-172z" />
    <glyph glyph-name="ucircumflex" unicode="&#xfb;" 
d="M65 556h180v-325c0 -43 20 -63 55 -63h26c41 0 79 26 79 78v310h180v-556h-180v46h-3c-23 -26 -67 -46 -127 -46h-46c-100 0 -164 55 -164 175v381zM137 603l117 145h142l117 -145h-159l-23 41h-12l-23 -41h-159z" />
    <glyph glyph-name="utilde" unicode="&#x169;" 
d="M65 556h180v-325c0 -43 20 -63 55 -63h26c41 0 79 26 79 78v310h180v-556h-180v46h-3c-23 -26 -67 -46 -127 -46h-46c-100 0 -164 55 -164 175v381zM391 753h130c0 -83 -42 -155 -140 -155c-58 0 -74 28 -97 28c-19 0 -26 -8 -26 -28h-130c0 83 42 155 140 155
c58 0 74 -28 97 -28c19 0 26 8 26 28z" />
    <glyph glyph-name="umacron" unicode="&#x16b;" 
d="M65 556h180v-325c0 -43 20 -63 55 -63h26c41 0 79 26 79 78v310h180v-556h-180v46h-3c-23 -26 -67 -46 -127 -46h-46c-100 0 -164 55 -164 175v381zM489 612h-328v127h328v-127z" />
    <glyph glyph-name="ydieresis" unicode="&#xff;" 
d="M585 556h-180v-310c0 -52 -38 -78 -79 -78h-26c-35 0 -55 20 -55 63v325h-180v-381c0 -120 64 -175 164 -175h46c60 0 104 20 127 46h3v-88c0 -25 -15 -38 -45 -38h-70c-30 0 -45 13 -45 38v23l-180 -45v-11c0 -116 80 -165 199 -165h108c120 0 213 50 213 170v626z
M295 608h-155v135h155v-135zM510 608h-155v135h155v-135z" />
    <glyph glyph-name="yacute" unicode="&#xfd;" 
d="M585 556h-180v-310c0 -52 -38 -78 -79 -78h-26c-35 0 -55 20 -55 63v325h-180v-381c0 -120 64 -175 164 -175h46c60 0 104 20 127 46h3v-88c0 -25 -15 -38 -45 -38h-70c-30 0 -45 13 -45 38v23l-180 -45v-11c0 -116 80 -165 199 -165h108c120 0 213 50 213 170v626z
M494 743l-106 -135h-172l106 135h172z" />
    <glyph glyph-name="scaron" unicode="&#x161;" 
d="M256 191v-20c0 -14 5 -23 41 -23h57c28 0 40 9 40 26v10c0 17 -12 29 -55 29h-68c-132 0 -185 43 -185 153v32c0 118 90 158 202 158h90c142 0 186 -57 186 -132v-11l-170 -41v16c0 14 -5 23 -41 23h-57c-23 0 -40 -6 -40 -22v-11c0 -17 12 -25 55 -25h58
c132 0 195 -55 195 -165v-30c0 -118 -90 -158 -202 -158h-90c-142 0 -186 57 -186 132v21zM254 603l-117 145h159l23 -41h12l23 41h159l-117 -145h-142z" />
    <glyph glyph-name="zcaron" unicode="&#x17e;" 
d="M577 0h-505v147l258 247v2h-245v160h487v-145l-255 -246v-2h260v-163zM254 603l-117 145h159l23 -41h12l23 41h159l-117 -145h-142z" />
    <glyph glyph-name="ntilde" unicode="&#xf1;" 
d="M585 0h-180v328c0 43 -20 63 -55 63h-26c-41 0 -79 -26 -79 -78v-313h-180v556h180v-46h3c23 26 67 46 127 46h46c99 0 164 -55 164 -175v-381zM391 753h130c0 -83 -42 -155 -140 -155c-58 0 -74 28 -97 28c-19 0 -26 -8 -26 -28h-130c0 83 42 155 140 155
c58 0 74 -28 97 -28c19 0 26 8 26 28z" />
    <glyph glyph-name="ccedilla" unicode="&#xe7;" 
d="M414 -20h-140v-16c0 -14 -11 -21 -24 -21h-54l-46 -113h130c102 0 134 45 134 117v33zM250 353v-147c0 -25 15 -38 45 -38h55c30 0 45 13 45 38v35l180 -50v-21c0 -120 -80 -170 -200 -170h-105c-120 0 -200 50 -200 170v216c0 120 80 170 200 170h105
c120 0 200 -50 200 -170v-33l-180 -45v45c0 25 -15 38 -45 38h-55c-30 0 -45 -13 -45 -38z" />
    <glyph glyph-name="aring" unicode="&#xe5;" 
d="M562 0h-170v36h-3c-28 -23 -67 -36 -127 -36h-29c-97 0 -166 44 -166 161v38c0 115 70 160 166 160h19c60 0 109 -12 137 -33h3v40c0 32 -18 45 -50 45h-49c-23 0 -31 -11 -31 -24v-13l-170 40v13c0 76 71 129 187 129h78c120 0 205 -65 205 -185v-371zM322 219h-45
c-22 0 -40 -10 -40 -31v-9c0 -21 18 -31 40 -31h45c29 0 70 7 70 31v9c0 27 -44 31 -70 31zM294 696c0 -18 12 -30 30 -30c19 0 30 12 30 30c0 19 -11 30 -30 30c-18 0 -30 -11 -30 -30zM209 696c0 66 49 112 115 112s115 -46 115 -112s-49 -112 -115 -112s-115 46 -115 112
z" />
    <glyph glyph-name="dollar" unicode="$" 
d="M245 -67v67h-1c-94 0 -179 50 -179 170v18l180 45v-27c0 -25 15 -38 45 -38h70c30 0 45 13 45 38v22c0 25 -15 38 -45 38h-105c-120 0 -190 56 -190 176v67c0 120 103 175 179 175h1v67h160v-67h1c90 0 179 -50 179 -170v-13l-180 -45v25c0 25 -15 38 -45 38h-70
c-30 0 -45 -13 -45 -38v-15c0 -25 15 -38 45 -38h104c120 0 191 -54 191 -174v-79c0 -120 -100 -175 -179 -175h-1v-67h-160z" />
    <glyph glyph-name="cent" unicode="&#xa2;" 
d="M250 -70v70h-1c-90 0 -179 50 -179 170v216c0 120 90 170 179 170h1v70h150v-70h1c90 0 179 -50 179 -170v-33l-180 -45v45c0 25 -15 38 -45 38h-60c-30 0 -45 -13 -45 -38v-147c0 -25 15 -38 45 -38h60c30 0 45 13 45 38v35l180 -50v-21c0 -120 -86 -170 -179 -170h-1
v-70h-150z" />
    <glyph glyph-name="sterling" unicode="&#xa3;" 
d="M595 168v-168h-500v255h-76v162h76v97c0 120 80 170 200 170h130c120 0 200 -50 200 -170v-28l-180 -45v40c0 25 -15 38 -45 38h-80c-30 0 -45 -13 -45 -38v-64h140l-45 -162h-95v-87h320z" />
    <glyph glyph-name="yen" unicode="&#xa5;" 
d="M115 232l-40 115h117v2l-153 133v202h180v-134l106 -117l106 117v134h180v-202l-153 -133v-2h117l-40 -115h-120v-36h107l-40 -115h-67v-81h-180v81h-67l-40 115h107v36h-120z" />
    <glyph glyph-name="Euro" unicode="&#x20ac;" 
d="M16 351v103h68v60c0 120 80 170 200 170h130c120 0 200 -50 200 -170v-23l-180 -45v35c0 25 -15 38 -45 38h-80c-30 0 -45 -13 -45 -38v-27h134l-25 -103h-109v-24h104l-25 -103h-79v-18c0 -25 15 -38 45 -38h80c30 0 45 13 45 38v37l180 -50v-23
c0 -120 -80 -170 -200 -170h-130c-120 0 -200 50 -200 170v54h-68v103h68v24h-68z" />
    <glyph glyph-name="yen.alt1" 
d="M125 259l-35 120h117l-191 305h212l97 -212l97 212h212l-191 -305h117l-35 -120h-110v-36h95l-30 -120h-65v-103h-180v103h-65l-30 120h95v36h-110z" />
    <glyph glyph-name="dollar.sc" 
d="M261 -53v53h-1c-126 0 -174 57 -174 132v21l170 38v-20c0 -14 5 -23 41 -23h57c28 0 40 9 40 26v10c0 17 -12 29 -55 29h-68c-132 0 -185 43 -185 153v32c0 122 102 158 174 158h1v58h128v-58h1c124 0 174 -57 174 -132v-11l-170 -41v16c0 14 -5 23 -41 23h-57
c-23 0 -40 -6 -40 -22v-11c0 -17 12 -25 55 -25h58c132 0 195 -55 195 -165v-30c0 -118 -101 -158 -174 -158h-1v-53h-128z" />
    <glyph glyph-name="cent.sc" 
d="M250 -55v55h-1c-104 0 -179 45 -179 165v226c0 120 75 165 179 165h1v60h150v-60h1c104 0 179 -45 179 -165v-23l-180 -50v35c0 25 -17 38 -43 38h-64c-26 0 -43 -13 -43 -38v-147c0 -25 17 -38 43 -38h64c26 0 43 13 43 38v47l180 -55v-33c0 -120 -75 -165 -179 -165h-1
v-55h-150z" />
    <glyph glyph-name="sterling.sc" 
d="M554 158v-158h-445v205h-63v128h63v58c0 120 70 165 190 165h105c120 0 190 -45 190 -165v-13l-170 -47v34c0 23 -17 36 -43 36h-59c-26 0 -43 -13 -43 -38v-30h114l-30 -128h-84v-47h275z" />
    <glyph glyph-name="yen.sc" 
d="M125 154l-40 120h119v2l-134 112v168h180v-135l75 -73l75 73v135h180v-168l-134 -112v-2h119l-40 -120h-115v-154h-170v154h-115z" />
    <glyph glyph-name="Euro.sc" 
d="M31 289v79h68v23c0 120 70 165 190 165h115c120 0 190 -45 190 -165v-8l-170 -37v27c0 25 -17 38 -43 38h-69c-31 0 -43 -8 -43 -28v-15h114l-20 -79h-94v-25h89l-20 -79h-69v-9c0 -20 12 -28 43 -28h69c26 0 43 13 43 38v31l170 -38v-14c0 -120 -60 -165 -180 -165h-125
c-120 0 -190 45 -190 165v20h-68v79h68v25h-68z" />
    <glyph glyph-name="yen.scalt1" 
d="M165 154l-40 127h93l-192 275h207l92 -159l92 159h207l-192 -275h93l-40 -127h-70v-154h-180v154h-70z" />
    <glyph glyph-name="period" unicode="." 
d="M420 0h-190v180h190v-180z" />
    <glyph glyph-name="periodcentered" unicode="&#xb7;" 
d="M420 231h-190v180h190v-180z" />
    <glyph glyph-name="comma" unicode="," 
d="M230 0v180h190v-191c0 -88 -46 -154 -142 -154h-34l-30 75h30c45 0 75 33 75 75v15h-89z" />
    <glyph glyph-name="colon" unicode=":" 
d="M420 341h-190v180h190v-180zM420 0h-190v180h190v-180z" />
    <glyph glyph-name="semicolon" unicode=";" 
d="M230 0v180h190v-191c0 -88 -46 -154 -142 -154h-34l-30 75h30c45 0 75 33 75 75v15h-89zM420 341h-190v180h190v-180z" />
    <glyph glyph-name="ellipsis" unicode="&#x2026;" 
d="M190 0h-190v180h190v-180zM420 0h-190v180h190v-180zM650 0h-190v180h190v-180z" />
    <glyph glyph-name="quotesingle" unicode="'" 
d="M407 495h-165v281h165v-281z" />
    <glyph glyph-name="quotedbl" unicode="&#x22;" 
d="M297 495h-165v281h165v-281zM517 495h-165v281h165v-281z" />
    <glyph glyph-name="quoteleft" unicode="&#x2018;" 
d="M412 684v-180h-190v191c0 88 46 154 142 154h34l30 -75h-30c-45 0 -75 -33 -75 -75v-15h89z" />
    <glyph glyph-name="quotedblleft" unicode="&#x201c;" 
d="M302 684v-180h-190v191c0 88 46 154 142 154h34l30 -75h-30c-45 0 -75 -33 -75 -75v-15h89zM538 684v-180h-190v191c0 88 46 154 142 154h34l30 -75h-30c-45 0 -75 -33 -75 -75v-15h89z" />
    <glyph glyph-name="quoteright" unicode="&#x2019;" 
d="M230 586v180h190v-191c0 -88 -46 -154 -142 -154h-34l-30 75h30c45 0 75 33 75 75v15h-89z" />
    <glyph glyph-name="quotedblright" unicode="&#x201d;" 
d="M112 586v180h190v-191c0 -88 -46 -154 -142 -154h-34l-30 75h30c45 0 75 33 75 75v15h-89zM348 586v180h190v-191c0 -88 -46 -154 -142 -154h-34l-30 75h30c45 0 75 33 75 75v15h-89z" />
    <glyph glyph-name="quotesinglbase" unicode="&#x201a;" 
d="M230 0v180h190v-191c0 -88 -46 -154 -142 -154h-34l-30 75h30c45 0 75 33 75 75v15h-89z" />
    <glyph glyph-name="quotedblbase" unicode="&#x201e;" 
d="M112 0v180h190v-191c0 -88 -46 -154 -142 -154h-34l-30 75h30c45 0 75 33 75 75v15h-89zM348 0v180h190v-191c0 -88 -46 -154 -142 -154h-34l-30 75h30c45 0 75 33 75 75v15h-89z" />
    <glyph glyph-name="guilsinglleft" unicode="&#x2039;" 
d="M176 522h179l125 -219l-125 -219h-179l121 219z" />
    <glyph glyph-name="guilsinglright" unicode="&#x203a;" 
d="M474 84h-179l-125 219l125 219h179l-121 -219z" />
    <glyph glyph-name="guillemotleft" unicode="&#xab;" 
d="M225 84h-179l121 219l-121 219h179l125 -219zM485 84h-179l121 219l-121 219h179l125 -219z" />
    <glyph glyph-name="guillemotright" unicode="&#xbb;" 
d="M344 84h-179l-125 219l125 219h179l-121 -219zM604 84h-179l-125 219l125 219h179l-121 -219z" />
    <glyph glyph-name="asciicircum" unicode="^" 
d="M31 398l234 312h120l234 -312h-199l-95 135l-95 -135h-199z" />
    <glyph glyph-name="hyphen" unicode="-" 
d="M496 231h-342v165h342v-165z" />
    <glyph glyph-name="endash" unicode="&#x2013;" 
d="M542 231h-434v165h434v-165z" />
    <glyph glyph-name="emdash" unicode="&#x2014;" 
d="M576 231h-502v165h502v-165z" />
    <glyph glyph-name="parenleft" unicode="(" 
d="M480 805v-170h-80c-30 0 -45 -13 -45 -38v-559c0 -25 15 -38 45 -38h80v-170h-105c-120 0 -200 50 -200 170v635c0 120 80 170 200 170h105z" />
    <glyph glyph-name="parenright" unicode=")" 
d="M170 635v170h105c120 0 200 -50 200 -170v-635c0 -120 -80 -170 -200 -170h-105v170h80c30 0 45 13 45 38v559c0 25 -15 38 -45 38h-80z" />
    <glyph glyph-name="bracketleft" unicode="[" 
d="M480 -170h-305v975h305v-170h-125v-635h125v-170z" />
    <glyph glyph-name="bracketright" unicode="]" 
d="M170 805h305v-975h-305v170h125v635h-125v170z" />
    <glyph glyph-name="braceleft" unicode="{" 
d="M508 -170h-88c-120 0 -200 50 -200 170v227c0 25 -15 38 -45 38h-29v160h29c30 0 45 13 45 38v172c0 120 80 170 200 170h87v-170h-62c-30 0 -45 -13 -45 -38v-142c0 -60 -13 -94 -67 -108v-4c54 -14 67 -48 67 -108v-197c0 -25 15 -38 45 -38h63v-170z" />
    <glyph glyph-name="braceright" unicode="}" 
d="M141 805h88c120 0 200 -50 200 -170v-172c0 -25 15 -38 45 -38h29v-160h-29c-30 0 -45 -13 -45 -38v-227c0 -120 -80 -170 -200 -170h-87v170h62c30 0 45 13 45 38v197c0 60 13 94 67 108v4c-54 14 -67 48 -67 108v142c0 25 -15 38 -45 38h-63v170z" />
    <glyph glyph-name="slash" unicode="/" 
d="M88 -91l295 851h178l-295 -851h-178z" />
    <glyph glyph-name="backslash" unicode="\" 
d="M266 760l295 -851h-178l-295 851h178z" />
    <glyph glyph-name="fraction" unicode="&#x2044;" 
d="M17 39l528 682l83 -66l-528 -681z" />
    <glyph glyph-name="bar" unicode="|" 
d="M235 -91v851h180v-851h-180z" />
    <glyph glyph-name="brokenbar" unicode="&#xa6;" 
d="M235 410v350h180v-350h-180zM235 -91v366h180v-366h-180z" />
    <glyph glyph-name="underscore" unicode="_" 
d="M622 0h-594v168h594v-168z" />
    <glyph glyph-name="exclam" unicode="!" 
d="M415 223h-180v462h180v-462zM415 0h-180v175h180v-175z" />
    <glyph glyph-name="exclamdown" unicode="&#xa1;" 
d="M235 333h180v-462h-180v462zM235 556h180v-175h-180v175z" />
    <glyph glyph-name="question" unicode="?" 
d="M379 223h-180v68c0 91 52 147 133 147h23c29 0 45 10 45 32v11c0 25 -15 38 -45 38h-80c-30 0 -45 -13 -45 -38v-25l-180 45v13c0 120 80 170 200 170h120c120 0 210 -55 210 -175v-67c0 -116 -76 -166 -141 -166h-20c-28 0 -40 -10 -40 -35v-18zM379 0h-180v175h180
v-175z" />
    <glyph glyph-name="questiondown" unicode="&#xbf;" 
d="M271 291h180v-68c0 -91 -52 -147 -133 -147h-23c-29 0 -45 -10 -45 -32v-11c0 -25 15 -38 45 -38h80c30 0 45 13 45 38v25l180 -45v-13c0 -120 -80 -170 -200 -170h-120c-120 0 -210 55 -210 175v67c0 116 76 166 141 166h20c28 0 40 10 40 35v18zM271 514h180v-175h-180
v175z" />
    <glyph glyph-name="bullet" unicode="&#x2022;" 
d="M465 390v-141c0 -48 -19 -67 -67 -67h-146c-48 0 -67 19 -67 67v141c0 48 19 67 67 67h146c48 0 67 -19 67 -67z" />
    <glyph glyph-name="plus" unicode="+" 
d="M83 396h160v170h180v-170h160v-165h-160v-170h-180v170h-160v165z" />
    <glyph glyph-name="minus" unicode="&#x2212;" 
d="M572 231h-494v165h494v-165z" />
    <glyph glyph-name="multiply" unicode="&#xd7;" 
d="M86 191l125 125l-125 126l113 113l125 -125l126 125l113 -113l-125 -126l125 -125l-113 -113l-126 125l-125 -125z" />
    <glyph glyph-name="divide" unicode="&#xf7;" 
d="M592 231h-534v165h534v-165zM420 435h-190v175h190v-175zM420 17h-190v175h190v-175z" />
    <glyph glyph-name="plusminus" unicode="&#xb1;" 
d="M100 524h135v130h180v-130h135v-165h-135v-130h-180v130h-135v165zM550 30h-450v165h450v-165z" />
    <glyph glyph-name="dagger" unicode="&#x2020;" 
d="M600 439h-185v-439h-180v439h-185v165h185v162h180v-162h185v-165z" />
    <glyph glyph-name="daggerdbl" unicode="&#x2021;" 
d="M415 352h185v-165h-185v-187h-180v187h-185v165h185v87h-185v165h185v162h180v-162h185v-165h-185v-87z" />
    <glyph glyph-name="less" unicode="&#x3c;" 
d="M541 589v-183l-212 -92v-2l212 -92v-183l-433 208v136z" />
    <glyph glyph-name="greater" unicode="&#x3e;" 
d="M108 406v183l433 -208v-136l-433 -208v183l212 92v2z" />
    <glyph glyph-name="equal" unicode="=" 
d="M547 120h-444v165h444v-165zM547 340h-444v165h444v-165z" />
    <glyph glyph-name="logicalnot" unicode="&#xac;" 
d="M387 63v168h-309v165h494v-333h-185z" />
    <glyph glyph-name="percent" unicode="%" 
d="M432 -48h-51c-70 0 -115 45 -115 105v95c0 60 45 105 115 105h51c70 0 115 -45 115 -105v-95c0 -60 -45 -105 -115 -105zM400 61h14c14 0 19 9 19 20v50c0 11 -5 19 -19 19h-14c-14 0 -19 -8 -19 -19v-50c0 -11 5 -20 19 -20zM268 427h-51c-70 0 -115 45 -115 105v95
c0 60 45 105 115 105h51c70 0 115 -45 115 -105v-95c0 -60 -45 -105 -115 -105zM236 536h14c14 0 19 9 19 20v50c0 11 -5 19 -19 19h-14c-14 0 -19 -8 -19 -19v-50c0 -11 5 -20 19 -20zM102 203v113l445 166v-113z" />
    <glyph glyph-name="perthousand" unicode="&#x2030;" 
d="M0 216v113l363 139v-113zM535 -48h-51c-70 0 -115 45 -115 105v95c0 60 45 105 115 105h51c70 0 115 -45 115 -105v-95c0 -60 -45 -105 -115 -105zM503 61h14c14 0 19 9 19 20v50c0 11 -5 19 -19 19h-14c-14 0 -19 -8 -19 -19v-50c0 -11 5 -20 19 -20zM229 -48h-51
c-70 0 -115 45 -115 105v95c0 60 45 105 115 105h51c70 0 115 -45 115 -105v-95c0 -60 -45 -105 -115 -105zM197 61h14c14 0 19 9 19 20v50c0 11 -5 19 -19 19h-14c-14 0 -19 -8 -19 -19v-50c0 -11 5 -20 19 -20zM166 427h-51c-70 0 -115 45 -115 105v95
c0 60 45 105 115 105h51c70 0 115 -45 115 -105v-95c0 -60 -45 -105 -115 -105zM134 536h14c14 0 19 9 19 20v50c0 11 -5 19 -19 19h-14c-14 0 -19 -8 -19 -19v-50c0 -11 5 -20 19 -20z" />
    <glyph glyph-name="numbersign" unicode="#" 
d="M351 0v98h-52v-98h-165v98h-99v145h99v65h-99v150h99v98h165v-98h52v98h165v-98h104v-150h-104v-65h104v-145h-104v-98h-165zM289 318v-85h72v85h-72z" />
    <glyph glyph-name="ampersand" unicode="&#x26;" 
d="M288 417v-145h-38c-30 0 -45 -13 -45 -38v-28c0 -25 15 -38 45 -38h90c30 0 45 13 45 38v71h-60v135h50v37l180 37v-74h70v-135h-70v-107c0 -120 -80 -170 -200 -170h-130c-120 0 -200 50 -200 170v55c0 40 23 101 87 120c-64 19 -87 80 -87 120v49c0 120 80 170 200 170
h130c120 0 200 -56 200 -157v-4l-180 -37v5c0 18 -15 28 -34 28h-91c-30 0 -45 -13 -45 -38v-23c0 -25 15 -41 45 -41h38z" />
    <glyph glyph-name="germandbls" unicode="&#xdf;" 
d="M616 225v-55c0 -120 -80 -170 -200 -170h-59l-44 168h78c30 0 45 13 45 38v21c0 25 -15 38 -45 38h-55v160h55c30 0 45 16 45 41v15c0 25 -15 38 -45 38h-80c-30 0 -45 -13 -45 -38v-481h-180v265h-52v160h52v89c0 120 80 170 200 170h130c120 0 200 -50 200 -170v-49
c0 -50 -23 -101 -87 -120c64 -19 87 -80 87 -120z" />
    <glyph glyph-name="section" unicode="&#xa7;" 
d="M416 552v21c0 24 -15 32 -45 32h-70c-30 0 -45 -8 -45 -32v-12c0 -26 15 -33 45 -33h99c120 0 196 -50 196 -160v-23c0 -53 -17 -102 -69 -128c52 -26 69 -68 69 -116v-27c0 -115 -90 -165 -210 -165h-110c-120 0 -200 55 -200 150v17l180 45v-20c0 -24 15 -32 45 -32h70
c30 0 45 8 45 32v11c0 26 -15 33 -45 33h-99c-120 0 -196 50 -196 160v23c0 53 17 102 69 128c-52 26 -69 68 -69 116v23c0 115 90 165 210 165h110c120 0 200 -55 200 -150v-13zM371 378h-70c-30 0 -45 -8 -45 -33v-17c0 -24 15 -33 45 -33h70c30 0 45 8 45 33v17
c0 24 -15 33 -45 33z" />
    <glyph glyph-name="at" unicode="@" 
d="M635 -45l-43 -125h-408c-102 0 -180 52 -180 154v418c0 102 78 154 180 154h291c101 0 170 -42 170 -144v-243c0 -90 -21 -169 -134 -169h-29c-55 0 -88 13 -105 40h-3c-17 -28 -53 -40 -88 -40h-21c-71 0 -97 44 -97 105v178c0 61 26 105 97 105h21c35 0 61 -10 77 -35
h3l13 35h100v-255c0 -18 10 -23 18 -23c7 0 18 5 18 23v250c0 32 -19 48 -57 48h-254c-38 0 -70 -26 -70 -58v-360c0 -32 32 -58 70 -58h431zM298 238v-83c0 -17 8 -25 20 -25h8c13 0 23 20 23 42v49c0 22 -10 42 -23 42h-8c-12 0 -20 -8 -20 -25z" />
    <glyph glyph-name="asterisk" unicode="*" 
d="M555 629l-94 -50v-4l128 -70l-104 -101l-90 56l-3 -2l3 -146l-140 40l3 105l-3 2l-124 -75l-36 141l94 50v4l-128 70l104 101l90 -56l3 2l-3 146l140 -40l-3 -106l3 -2l124 76z" />
    <glyph glyph-name="registered" unicode="&#xae;" 
d="M440 314h-230c-91 0 -153 40 -153 130v271c0 92 62 130 153 130h230c91 0 153 -38 153 -130v-271c0 -90 -62 -130 -153 -130zM222 424h206c26 0 45 16 45 39v233c0 22 -19 39 -45 39h-206c-28 0 -45 -17 -45 -39v-233c0 -23 17 -39 45 -39zM441 454h-85v37l-30 41h-27
v-78h-85v250h156c46 0 71 -17 71 -63v-36c0 -26 -17 -48 -34 -55v-2l34 -40v-54zM299 597h42c9 0 15 6 15 13v11c0 8 -6 13 -15 13h-42v-37z" />
    <glyph glyph-name="copyright" unicode="&#xa9;" 
d="M435 0h-220c-120 0 -200 50 -200 170v344c0 120 80 170 200 170h220c120 0 200 -50 200 -170v-344c0 -120 -80 -170 -200 -170zM230 140h190c40 0 70 28 70 73v258c0 45 -30 73 -70 73h-190c-40 0 -70 -28 -70 -73v-258c0 -45 30 -73 70 -73zM300 374v-69
c0 -13 9 -18 23 -18h11c14 0 22 5 22 18v31l100 -26v-23c0 -80 -27 -110 -117 -110h-29c-90 0 -115 29 -115 119v97c0 80 25 110 115 110h34c90 0 112 -29 112 -104v-17l-100 -25v17c0 13 -8 19 -22 19h-11c-14 0 -23 -6 -23 -19z" />
    <glyph glyph-name="trademark" unicode="&#x2122;" 
d="M648 474h-122v157h-6l-40 -78h-35l-40 78h-6v-157h-122v241h-62v-241h-122v241h-90v127h402l56 -95h4l55 95h128v-368z" />
    <glyph glyph-name="Paragraph" 
d="M585 684v-775h-180v610h-160c-30 0 -45 -13 -45 -38v-45c0 -25 15 -41 45 -41h105v-486h-180v326h-5c-58 0 -145 38 -145 158v121c0 120 80 170 200 170h365z" />
    <glyph glyph-name="degree" unicode="&#xb0;" 
d="M270 612c0 -34 21 -55 55 -55s55 21 55 55s-21 55 -55 55s-55 -21 -55 -55zM115 612c0 121 89 207 210 207s210 -86 210 -207s-89 -207 -210 -207s-210 86 -210 207z" />
    <glyph glyph-name="Oslash" unicode="&#xd8;" 
d="M-4 -82l81 139c-25 27 -37 65 -37 113v344c0 121 82 170 200 170h170c11 0 21 -1 31 -2l49 84h164l-81 -139c24 -28 37 -66 37 -113v-344c0 -122 -82 -170 -200 -170h-170c-11 0 -22 0 -32 1l-48 -83h-164zM225 486v-140v-35l124 213h-26h-53c-30 0 -45 -13 -45 -38z
M380 165c30 0 45 13 45 38v162v8l-121 -208h38h38z" />
    <glyph glyph-name="oslash" unicode="&#xf8;" 
d="M-10 -82l102 145c-21 26 -32 61 -32 107v216c0 121 80 170 200 170h130c16 0 32 -1 46 -3l60 85h164l-102 -145c20 -27 32 -62 32 -107v-216c0 -121 -81 -170 -200 -170h-130c-17 0 -32 1 -47 3l-59 -85h-164zM230 368v-82v-27l103 147h-19h-39c-30 0 -45 -13 -45 -38z
M375 155c30 0 45 13 45 38v69v34l-100 -141h27h28z" />
    <glyph glyph-name="Eth" unicode="&#xd0;" 
d="M22 265v160h56v259h325c120 0 195 -50 195 -170v-344c0 -120 -75 -170 -195 -170h-325v265h-56zM418 206v275c0 25 -15 38 -45 38h-115v-94h94v-160h-94v-97h115c30 0 45 13 45 38z" />
    <glyph glyph-name="eth" unicode="&#xf0;" 
d="M221 519l-65 124h103l-34 67h179l32 -67h78l60 -124h-79l57 -118c13 -27 23 -55 23 -95v-136c0 -121 -81 -170 -200 -170h-100c-120 0 -200 49 -200 170v136c0 120 80 170 200 170h43c9 0 21 -1 25 -2l1 1l-23 44h-100zM300 168h50c30 0 45 13 45 38v72
c0 25 -15 38 -45 38h-50c-30 0 -45 -13 -45 -38v-72c0 -25 15 -38 45 -38z" />
    <glyph glyph-name="AE" unicode="&#xc6;" 
d="M184 156v-156h-180v195l254 489h380v-165h-150v-87h106v-162h-106v-102h150v-168h-330v163h-124v-7zM299 426l-55 -123h64v123h-9z" />
    <glyph glyph-name="ae" unicode="&#xe6;" 
d="M252 183v36h-46c-24 0 -35 -11 -35 -26v-16c0 -20 4 -29 29 -29h20c22 0 32 13 32 35zM246 359v19c0 23 -5 33 -35 33h-17c-18 0 -26 -8 -26 -21v-11l-146 41v7c0 68 40 129 144 129h57c60 0 92 -24 107 -49h4c15 25 49 49 109 49h36c120 0 160 -76 160 -194v-143h-218
v-33c0 -25 4 -38 22 -38h30c20 0 25 12 25 34v15l141 -42v-4c0 -83 -20 -151 -140 -151h-51c-60 0 -99 24 -114 49h-4c-15 -25 -47 -49 -107 -49h-49c-110 0 -162 44 -162 164v46c0 115 46 150 177 149h57zM421 376v-17h77v16c0 24 -5 36 -29 36h-16c-22 0 -32 -13 -32 -35z
" />
    <glyph glyph-name="OE" unicode="&#x152;" 
d="M638 0h-310v39h-3c-20 -27 -55 -39 -108 -39h-15c-108 0 -188 55 -188 170v344c0 115 80 170 188 170h15c53 0 88 -12 108 -39h3v39h310v-165h-150v-87h106v-162h-106v-102h150v-168zM239 168h15c45 0 64 36 64 87v174c0 51 -19 90 -59 90h-20c-30 0 -45 -13 -45 -38
v-275c0 -25 15 -38 45 -38z" />
    <glyph glyph-name="oe" unicode="&#x153;" 
d="M195 148h15c25 0 40 20 40 50v163c0 30 -15 50 -40 50h-15c-25 0 -35 -10 -35 -35v-193c0 -25 10 -35 35 -35zM330 49c-15 -25 -52 -49 -112 -49h-39c-120 0 -167 45 -167 165v221c0 120 45 170 165 170h41c60 0 97 -24 112 -49h4c15 25 49 49 109 49h36
c120 0 160 -76 160 -194v-143h-218v-33c0 -25 4 -38 22 -38h30c20 0 25 12 25 34v15l141 -42v-4c0 -83 -20 -151 -140 -151h-51c-60 0 -99 24 -114 49h-4zM421 376v-17h77v16c0 24 -5 36 -29 36h-16c-22 0 -32 -13 -32 -35z" />
    <glyph glyph-name="asciitilde" unicode="~" 
d="M426 622h167c0 -116 -59 -212 -191 -212c-82 0 -114 41 -141 41s-37 -15 -37 -46h-167c0 116 59 212 191 212c82 0 114 -41 141 -41s37 15 37 46z" />
    <glyph glyph-name="florin" unicode="&#x192;" 
d="M542 254h-145v-254c0 -120 -65 -170 -185 -170h-158l39 170h79c30 0 45 13 45 38v216h-129v162h129v98c0 120 80 170 200 170h183l-39 -165h-119c-30 0 -45 -13 -45 -38v-65h145v-162z" />
    <glyph glyph-name="currency" unicode="&#xa4;" 
d="M115 349c0 30 5 59 16 84l-81 81l110 110l83 -83c25 9 52 15 82 15c29 0 57 -6 82 -15l83 83l110 -110l-81 -81c10 -25 16 -54 16 -84c0 -31 -6 -59 -16 -84l81 -81l-110 -110l-83 83c-25 -10 -53 -15 -82 -15c-30 0 -57 5 -82 15l-83 -83l-110 110l81 81
c-11 25 -16 53 -16 84zM270 349c0 -34 21 -55 55 -55s55 21 55 55s-21 55 -55 55s-55 -21 -55 -55z" />
    <glyph glyph-name="mu" unicode="&#xb5;" 
d="M72 -170v726h180v-310c0 -52 38 -78 79 -78h26c35 0 55 20 55 63v325h180v-381c0 -120 -64 -175 -164 -175h-46c-60 0 -104 20 -127 46h-3v-216h-180z" />
    <glyph glyph-name="Thorn" unicode="&#xde;" 
d="M595 413v-114c0 -120 -80 -170 -200 -170h-130v-129h-180v684h180v-101h130c120 0 200 -50 200 -170zM415 339v41c0 25 -15 38 -45 38h-105v-127h105c30 0 45 23 45 48z" />
    <glyph glyph-name="thorn" unicode="&#xfe;" 
d="M375 391h-26c-41 0 -79 -26 -79 -78v-67c0 -52 38 -78 79 -78h26c35 0 55 20 55 63v97c0 43 -20 63 -55 63zM270 46v-216h-180v854h180v-174h3c23 26 67 46 127 46h46c99 0 164 -56 164 -175v-206c0 -120 -64 -175 -164 -175h-46c-60 0 -104 20 -127 46h-3z" />
    <glyph glyph-name="onehalf" unicode="&#xbd;" 
d="M182 710v-254h58v-106h-240v106h58v150h-57v104h181zM650 -23h-291v90l147 114c12 8 17 16 17 27v4c0 12 -6 21 -24 21h-16c-15 0 -21 -4 -21 -15v-17l-106 18v38c0 56 47 80 104 80h93c56 0 94 -33 94 -89v-31c0 -41 -8 -59 -39 -83l-68 -51h110v-106zM17 39l528 682
l83 -66l-528 -681z" />
    <glyph glyph-name="onequarter" unicode="&#xbc;" 
d="M182 710v-254h58v-106h-240v106h58v150h-57v104h181zM650 28h-40v-51h-116v51h-191v102l170 207h137v-204h40v-105zM494 133v63h-5l-49 -63h54zM17 39l528 682l83 -66l-528 -681z" />
    <glyph glyph-name="threequarters" unicode="&#xbe;" 
d="M-3 461l101 21v-11c0 -11 6 -15 21 -15h33c18 0 22 5 22 16v9c0 12 -8 15 -22 15h-38v71h38c17 0 22 4 22 15v8c0 12 -4 16 -22 16h-33c-15 0 -21 -4 -21 -15v-10l-101 21v28c0 56 47 80 104 80h93c56 0 94 -33 94 -89v-33c0 -19 -10 -48 -40 -57c30 -8 40 -38 40 -56
v-35c0 -57 -38 -90 -94 -90h-93c-57 0 -104 24 -104 80v31zM650 28h-40v-51h-116v51h-191v102l170 207h137v-204h40v-105zM494 133v63h-5l-49 -63h54zM40 39l528 682l83 -66l-528 -681z" />
    <glyph glyph-name="onesuperior" unicode="&#xb9;" 
d="M387 710v-254h68v-106h-260v106h68v150h-67v104h191z" />
    <glyph glyph-name="twosuperior" unicode="&#xb2;" 
d="M477 350h-291v90l147 114c12 8 17 16 17 27v4c0 12 -6 21 -24 21h-16c-15 0 -21 -4 -21 -15v-17l-116 28v28c0 56 47 80 104 80h103c56 0 94 -33 94 -89v-31c0 -41 -8 -59 -39 -83l-68 -51h110v-106z" />
    <glyph glyph-name="threesuperior" unicode="&#xb3;" 
d="M172 461l116 21v-11c0 -11 6 -15 21 -15h23c18 0 22 5 22 16v4c0 12 -8 15 -22 15h-28v81h28c17 0 22 4 22 15v3c0 12 -4 16 -22 16h-23c-15 0 -21 -4 -21 -15v-10l-116 21v28c0 56 47 80 104 80h108c56 0 94 -33 94 -89v-33c0 -19 -10 -48 -40 -57c30 -8 40 -38 40 -56
v-35c0 -57 -38 -90 -94 -90h-108c-57 0 -104 24 -104 80v31z" />
    <glyph glyph-name="ordfeminine" unicode="&#xaa;" 
d="M495 375h-129v26h-4c-14 -16 -44 -33 -88 -33h-18c-73 0 -101 33 -101 103v17c0 70 28 102 101 102h23c34 0 62 -8 83 -21h4v19c0 19 -6 27 -24 27h-25c-13 0 -19 -5 -19 -12v-4l-125 25v7c0 46 44 79 103 79h102c73 0 117 -34 117 -106v-229zM322 503h-22
c-16 0 -24 -7 -24 -16v-9c0 -9 8 -15 24 -15h22c27 0 42 10 42 18v4c0 8 -15 18 -42 18z" />
    <glyph glyph-name="ordmasculine" unicode="&#xba;" 
d="M370 350h-90c-77 0 -129 32 -129 110v140c0 78 52 110 129 110h90c77 0 129 -32 129 -110v-140c0 -78 -52 -110 -129 -110zM306 456h38c19 0 29 9 29 25v100c0 17 -10 25 -29 25h-38c-19 0 -29 -8 -29 -25v-100c0 -16 10 -25 29 -25z" />
    <glyph glyph-name="at.alt1" 
d="M635 125l-43 -125h-408c-102 0 -180 52 -180 154v377c0 102 78 154 180 154h291c101 0 170 -42 170 -144v-202c0 -90 -21 -169 -134 -169h-29c-55 0 -88 13 -105 40h-3c-17 -28 -53 -40 -88 -40h-21c-71 0 -97 44 -97 105v137c0 61 26 105 97 105h21c35 0 61 -10 77 -35
h3l13 35h100v-215c0 -18 10 -23 18 -23c7 0 18 5 18 23v210c0 32 -19 48 -57 48h-254c-38 0 -70 -26 -70 -58v-319c0 -32 32 -58 70 -58h431zM298 367v-42c0 -17 8 -25 20 -25h8c13 0 23 20 23 42v8c0 22 -10 42 -23 42h-8c-12 0 -20 -8 -20 -25z" />
    <glyph glyph-name="at.alt2" 
d="M633 0h-160v38h-5c-17 -25 -47 -38 -94 -38h-22c-71 0 -117 44 -117 115v255c0 71 46 115 117 115h22c42 0 84 -21 94 -37h5v41c0 32 -19 45 -57 45h-172c-38 0 -70 -28 -70 -60v-448c0 -32 32 -58 70 -58h391l36 -138h-477c-102 0 -180 52 -180 154v546
c0 102 78 154 180 154h269c101 0 170 -42 170 -146v-538zM395 305v-124c0 -20 16 -31 31 -31h9c22 0 38 25 38 55v75c0 30 -16 55 -38 55h-9c-15 0 -31 -10 -31 -30z" />
    <glyph glyph-name="at.alt3" 
d="M633 0h-160v38h-5c-17 -25 -57 -38 -104 -38h-22c-71 0 -117 44 -117 115v175c0 71 46 105 117 105h22c42 0 94 -21 104 -37h5v41c0 32 -19 45 -57 45h-172c-38 0 -70 -28 -70 -60v-356c0 -32 32 -58 70 -58h391l36 -140h-477c-102 0 -180 52 -180 154v446
c0 102 78 154 180 154h269c101 0 170 -42 170 -146v-438zM385 225v-54c0 -20 16 -31 31 -31h9c22 0 48 20 48 50v15c0 30 -26 50 -48 50h-9c-15 0 -31 -10 -31 -30z" />
    <glyph glyph-name="box" 
d="M-80 747v-810h810v810h-810zM-270 -253v1190h1190v-1190h-1190z" />
  </font>
</defs>
</svg>
